<svg width="69" height="64" viewBox="0 0 69 64" fill="none" xmlns="http://www.w3.org/2000/svg">
<g clip-path="url(#clip0)">
<path fill-rule="evenodd" clip-rule="evenodd" d="M67.8529 20.9456C68.4864 20.9456 69 21.4708 69 22.1131V50.0327C69 50.6775 68.4816 51.2002 67.8474 51.2002H40.2824C39.6458 51.2002 39.1292 50.6751 39.1286 50.0327L39.1 20.9456C39.7278 9.27604 49.2683 0.000191689 60.95 0.000191689H60.9533C61.5866 0.000191689 62.1 0.530412 62.1 1.15847V10.4783C62.1 11.118 61.5788 11.6366 60.9533 11.6366H60.95C55.6226 11.6366 51.2352 15.7093 50.6632 20.9456H67.8529ZM28.7529 20.9456C29.3864 20.9456 29.9 21.4708 29.9 22.1131V50.0327C29.9 50.6775 29.3816 51.2002 28.7474 51.2002H1.18239C0.545805 51.2002 0.0292354 50.6751 0.028604 50.0327L1.43051e-06 20.9456C0.62776 9.27604 10.1683 0.000191689 21.85 0.000191689H21.8533C22.4866 0.000191689 23 0.530412 23 1.15847V10.4783C23 11.118 22.4788 11.6366 21.8533 11.6366H21.85C16.5226 11.6366 12.1352 15.7093 11.5632 20.9456H28.7529Z" fill="white" fill-opacity="0.08"/>
</g>
<defs>
<clipPath id="clip0">
<rect width="69" height="64" fill="white"/>
</clipPath>
</defs>
</svg>
