<svg width="69" height="64" viewBox="0 0 69 64" fill="none" xmlns="http://www.w3.org/2000/svg">
<g clip-path="url(#clip0)">
<path fill-rule="evenodd" clip-rule="evenodd" d="M1.14705 30.2545C0.513553 30.2545 0 29.7294 0 29.0871V1.16747C0 0.522693 0.518474 0 1.15267 0H28.7176C29.3542 0 29.8708 0.52512 29.8714 1.16747L29.9 30.2545C29.2722 41.9241 19.7317 51.2 8.05 51.2H8.0467C7.4134 51.2 6.9 50.6698 6.9 50.0417V40.7219C6.9 40.0822 7.42116 39.5636 8.0467 39.5636H8.05C13.3774 39.5636 17.7648 35.4908 18.3368 30.2545H1.14705ZM40.2471 30.2545C39.6136 30.2545 39.1 29.7294 39.1 29.0871V1.16747C39.1 0.522693 39.6185 0 40.2527 0H67.8176C68.4542 0 68.9708 0.52512 68.9714 1.16747L69 30.2545C68.3722 41.9241 58.8317 51.2 47.15 51.2H47.1467C46.5134 51.2 46 50.6698 46 50.0417V40.7219C46 40.0822 46.5212 39.5636 47.1467 39.5636H47.15C52.4774 39.5636 56.8648 35.4908 57.4368 30.2545H40.2471Z" fill="white" fill-opacity="0.08"/>
</g>
<defs>
<clipPath id="clip0">
<rect width="69" height="64" fill="white"/>
</clipPath>
</defs>
</svg>
