<svg width="15" height="29" viewBox="0 0 15 29" fill="none" xmlns="http://www.w3.org/2000/svg">
<path d="M14.7245 26.7169L2.86133 14.9294C2.70688 14.7758 2.62011 14.5674 2.62011 14.3501C2.62011 14.1328 2.70688 13.9245 2.86133 13.7708L14.6862 1.99803C14.8406 1.84437 14.9274 1.63599 14.9274 1.41872C14.9274 1.20144 14.8406 0.99306 14.6862 0.839404C14.5317 0.685786 14.3221 0.599487 14.1037 0.599487C13.8852 0.599487 13.6757 0.685786 13.5212 0.839404L0.502939 13.7981C0.348486 13.9518 0.261719 14.1601 0.261719 14.3774C0.261719 14.5947 0.348486 14.8031 0.502939 14.9567L13.5321 27.9039C13.6866 28.0576 13.8961 28.1439 14.1145 28.1439C14.333 28.1439 14.5425 28.0576 14.697 27.9039L14.7252 27.8759C14.8017 27.7998 14.8623 27.7094 14.9037 27.6099C14.945 27.5105 14.9663 27.4039 14.9662 27.2963C14.9662 27.1886 14.9448 27.0821 14.9033 26.9827C14.8618 26.8833 14.801 26.793 14.7245 26.7169V26.7169Z" fill="black"/>
</svg>
