<svg width="216" height="32" viewBox="0 0 216 32" fill="none" xmlns="http://www.w3.org/2000/svg">
<path d="M18.7782 12.589H12.0102V7.889C12.0102 7.10567 11.6029 6.714 10.7882 6.714H8.86121C8.01521 6.714 7.59221 7.10567 7.59221 7.889V26.219C7.59221 26.6577 7.68621 26.971 7.87421 27.159C8.06221 27.3157 8.39121 27.394 8.86121 27.394H10.7882C11.2269 27.394 11.5402 27.3157 11.7282 27.159C11.9162 26.971 12.0102 26.6577 12.0102 26.219V21.66H18.7782V26.83C18.7782 30.2767 16.7885 32 12.8092 32H6.79321C2.84521 32 0.871211 30.2767 0.871211 26.83V7.278C0.871211 3.83133 2.84521 2.108 6.79321 2.108H12.8092C16.7885 2.108 18.7782 3.83133 18.7782 7.278V12.589ZM27.6704 8.735H33.2634C35.3314 8.735 36.8041 9.18933 37.6814 10.098C38.5901 10.9753 39.0444 12.26 39.0444 13.952V26.783C39.0444 28.475 38.5901 29.7753 37.6814 30.684C36.8041 31.5613 35.3314 32 33.2634 32H27.6704C25.6024 32 24.1141 31.5613 23.2054 30.684C22.3281 29.7753 21.8894 28.475 21.8894 26.783V13.952C21.8894 12.26 22.3281 10.9753 23.2054 10.098C24.1141 9.18933 25.6024 8.735 27.6704 8.735ZM32.6054 26.125V14.61C32.6054 13.8267 32.1824 13.435 31.3364 13.435H29.5974C28.7514 13.435 28.3284 13.8267 28.3284 14.61V26.125C28.3284 26.9083 28.7514 27.3 29.5974 27.3H31.3364C32.1824 27.3 32.6054 26.9083 32.6054 26.125ZM63.3177 8.735H64.4457C68.1117 8.735 69.9447 10.474 69.9447 13.952V32H63.4117V14.845C63.4117 14.0617 62.9887 13.67 62.1427 13.67H61.0147C60.106 13.67 59.6517 14.1713 59.6517 15.174V32H53.0717V14.845C53.0717 14.0617 52.6487 13.67 51.8027 13.67H50.6747C49.766 13.67 49.3117 14.1713 49.3117 15.174V32H42.7787V8.735H49.2177V11.367C49.6564 9.61233 50.9097 8.735 52.9777 8.735H54.1527C56.722 8.735 58.3984 9.61233 59.1817 11.367C59.401 10.5523 59.871 9.91 60.5917 9.44C61.3437 8.97 62.2524 8.735 63.3177 8.735ZM94.2073 8.735H95.3353C99.0013 8.735 100.834 10.474 100.834 13.952V32H94.3013V14.845C94.3013 14.0617 93.8783 13.67 93.0323 13.67H91.9043C90.9957 13.67 90.5413 14.1713 90.5413 15.174V32H83.9613V14.845C83.9613 14.0617 83.5383 13.67 82.6923 13.67H81.5643C80.6557 13.67 80.2013 14.1713 80.2013 15.174V32H73.6683V8.735H80.1073V11.367C80.546 9.61233 81.7993 8.735 83.8673 8.735H85.0423C87.6117 8.735 89.288 9.61233 90.0713 11.367C90.2907 10.5523 90.7607 9.91 91.4813 9.44C92.2333 8.97 93.142 8.735 94.2073 8.735ZM114.569 8.735H121.008V32H114.475V29.697C114.005 31.2323 112.767 32 110.762 32H109.634C105.968 32 104.135 30.261 104.135 26.783V13.952C104.135 10.474 105.968 8.735 109.634 8.735H110.762C112.861 8.735 114.13 9.61233 114.569 11.367V8.735ZM111.984 27.065H113.065C114.005 27.065 114.475 26.5637 114.475 25.561V15.174C114.475 14.1713 114.005 13.67 113.065 13.67H111.984C111.138 13.67 110.715 14.0617 110.715 14.845V25.89C110.715 26.6733 111.138 27.065 111.984 27.065ZM135.136 8.735H136.311C139.977 8.735 141.81 10.474 141.81 13.952V32H135.23V14.845C135.23 14.0617 134.807 13.67 133.961 13.67H132.833C131.924 13.67 131.47 14.1713 131.47 15.174V32H124.937V8.735H131.376V11.367C131.815 9.61233 133.068 8.735 135.136 8.735ZM155.508 0.556999H162.041V32H155.602V29.368C155.164 31.1227 153.895 32 151.795 32H150.667C147.001 32 145.168 30.261 145.168 26.783V13.905C145.168 10.4583 147.001 8.735 150.667 8.735H151.795C153.801 8.735 155.038 9.50267 155.508 11.038V0.556999ZM153.017 27.065H154.098C155.038 27.065 155.508 26.5637 155.508 25.561V15.174C155.508 14.1713 155.038 13.67 154.098 13.67H153.017C152.547 13.67 152.218 13.764 152.03 13.952C151.842 14.1087 151.748 14.4063 151.748 14.845V25.89C151.748 26.6733 152.171 27.065 153.017 27.065ZM171.563 8.735H176.874C180.853 8.735 182.843 10.474 182.843 13.952V22.177H171.892V26.172C171.892 26.5793 171.986 26.877 172.174 27.065C172.362 27.2217 172.691 27.3 173.161 27.3H175.276C175.715 27.3 176.028 27.206 176.216 27.018C176.404 26.83 176.498 26.5167 176.498 26.078V24.527H182.796V26.783C182.796 30.261 180.806 32 176.827 32H171.563C167.615 32 165.641 30.261 165.641 26.783V13.952C165.641 10.474 167.615 8.735 171.563 8.735ZM171.892 18.323H176.545V14.563C176.545 14.1557 176.451 13.8737 176.263 13.717C176.075 13.529 175.762 13.435 175.323 13.435H173.161C172.691 13.435 172.362 13.529 172.174 13.717C171.986 13.8737 171.892 14.1557 171.892 14.563V18.323ZM197.118 8.594H197.917V14.281H195.614C193.64 14.281 192.653 15.3777 192.653 17.571V32H186.12V8.735H192.559V12.072C192.809 11.038 193.326 10.2077 194.11 9.581C194.893 8.923 195.896 8.594 197.118 8.594ZM209.284 26.407V23.775C209.284 23.3677 209.19 23.0857 209.002 22.929C208.814 22.741 208.485 22.647 208.015 22.647H205.336C201.419 22.647 199.461 20.9237 199.461 17.477V13.952C199.461 10.474 201.45 8.735 205.43 8.735H209.425C213.404 8.735 215.394 10.474 215.394 13.952V16.02H209.096V14.328C209.096 13.9207 209.002 13.6387 208.814 13.482C208.626 13.294 208.297 13.2 207.827 13.2H207.122C206.652 13.2 206.323 13.294 206.135 13.482C205.947 13.6387 205.853 13.9207 205.853 14.328V17.148C205.853 17.5553 205.947 17.853 206.135 18.041C206.323 18.1977 206.652 18.276 207.122 18.276H209.801C213.717 18.276 215.676 19.9837 215.676 23.399V26.783C215.676 30.261 213.686 32 209.707 32H205.524C201.576 32 199.602 30.261 199.602 26.783V24.762H205.994V26.407C205.994 27.1903 206.401 27.582 207.216 27.582H208.015C208.861 27.582 209.284 27.1903 209.284 26.407Z" fill="#DEA73C"/>
</svg>
