<svg width="109" height="120" viewBox="0 0 109 120" fill="none" xmlns="http://www.w3.org/2000/svg">
<path d="M2 86.3052V5C2 3.34315 3.34315 2 5 2H104C105.657 2 107 3.34314 107 5V45.0199V86.2902C107 87.3713 106.418 88.3689 105.477 88.9013L55.5336 117.157C54.6101 117.679 53.4793 117.675 52.5597 117.146L3.50326 88.9051C2.57322 88.3697 2 87.3783 2 86.3052Z" fill="#212121" stroke="#D1D1D1" stroke-width="3"/>
<path d="M35.1329 42.306L48.8513 20L52.1389 25.75L39.8703 46.4884H16.3038L12 42.306H35.1329Z" fill="#3CADDE" fill-opacity="0.85"/>
<path d="M56.8611 25.75L60.4177 20L73.8671 42.306H97L92.9652 46.4884H69.2494L56.8611 25.75Z" fill="#3CADDE" fill-opacity="0.85"/>
<path d="M43.4815 48.75L54.5 29.8571L65.5185 48.75L54.5 67.6429L43.4815 48.75Z" fill="#3CADDE" fill-opacity="0.85"/>
<path d="M16.3038 51.5073H39.8703L54.5 75.8571L69.2494 51.5073H92.9652L97 55.6897H74.9911L54.5 89L34.0089 55.6897H12L16.3038 51.5073Z" fill="#3CADDE" fill-opacity="0.85"/>
</svg>
