<svg width="110" height="120" viewBox="0 0 110 120" fill="none" xmlns="http://www.w3.org/2000/svg">
<path d="M2 86.297V5C2 3.34315 3.34315 2 5 2H105C106.657 2 108 3.34314 108 5V45.0199V86.282C108 87.3675 107.414 88.3684 106.467 88.8991L56.0186 117.171C55.1006 117.685 53.9801 117.681 53.0659 117.16L3.51391 88.903C2.57787 88.3693 2 87.3745 2 86.297Z" fill="#212121" stroke="#D1D1D1" stroke-width="3"/>
<path d="M36.0599 63.9091V89L25 52.7273L54.8618 23L85 52.7273L73.9401 89V63.9091L54.8618 45.0909L36.0599 63.9091Z" fill="#DEA73C" fill-opacity="0.85"/>
<path d="M54.8618 51.3636L39.6544 66.3636C52.4839 75.3091 65.4608 70.0909 70.3456 66.3636L54.8618 51.3636Z" fill="#DEA73C" fill-opacity="0.85"/>
<path d="M49.3318 23L28.871 43.1818C29.7558 27.4727 42.8802 21.1818 49.3318 20V23Z" fill="#DEA73C" fill-opacity="0.85"/>
<path d="M60.9447 23V20C76.6498 24.1455 80.9447 37.1818 81.129 43.1818L60.9447 23Z" fill="#DEA73C" fill-opacity="0.85"/>
</svg>
