<svg width="21" height="21" viewBox="0 0 21 21" fill="none" xmlns="http://www.w3.org/2000/svg">
<circle cx="10.5" cy="10.5" r="9.5" stroke="white" stroke-width="2"/>
<path d="M6.702 6.128L6.612 4.598C6.72 4.574 6.918 4.538 7.206 4.49C7.494 4.43 7.686 4.394 7.782 4.382C7.89 4.37 8.07 4.346 8.322 4.31C8.586 4.274 8.814 4.25 9.006 4.238C9.198 4.226 9.45 4.214 9.762 4.202C10.074 4.19 10.41 4.184 10.77 4.184C12.03 4.184 12.966 4.412 13.578 4.868C14.202 5.324 14.514 6.026 14.514 6.974C14.514 7.466 14.406 7.922 14.19 8.342C13.986 8.75 13.728 9.11 13.416 9.422C13.116 9.734 12.81 10.052 12.498 10.376C12.198 10.7 11.928 11.096 11.688 11.564C11.46 12.032 11.328 12.548 11.292 13.112H9.474C9.462 12.512 9.54 11.96 9.708 11.456C9.888 10.94 10.11 10.514 10.374 10.178C10.638 9.83 10.902 9.506 11.166 9.206C11.442 8.906 11.682 8.606 11.886 8.306C12.09 7.994 12.198 7.688 12.21 7.388C12.234 6.908 12.09 6.56 11.778 6.344C11.478 6.116 10.98 6.002 10.284 6.002C9.324 6.002 8.13 6.044 6.702 6.128ZM10.122 14.534H10.644C10.944 14.534 11.148 14.594 11.256 14.714C11.376 14.822 11.436 15.02 11.436 15.308V16.226C11.436 16.514 11.376 16.718 11.256 16.838C11.148 16.946 10.944 17 10.644 17H10.122C9.822 17 9.612 16.946 9.492 16.838C9.384 16.718 9.33 16.514 9.33 16.226V15.308C9.33 15.02 9.384 14.822 9.492 14.714C9.612 14.594 9.822 14.534 10.122 14.534Z" fill="white" fill-opacity="0.9"/>
</svg>
