<svg width="681" height="88" viewBox="0 0 681 88" fill="none" xmlns="http://www.w3.org/2000/svg">
<g clip-path="url(#clip0)">
<path fill-rule="evenodd" clip-rule="evenodd" d="M613.147 54.2545C612.514 54.2545 612 53.7294 612 53.0871V25.1675C612 24.5227 612.518 24 613.153 24H640.718C641.354 24 641.871 24.5251 641.871 25.1675L641.9 54.2545C641.272 65.9241 631.732 75.2 620.05 75.2H620.047C619.413 75.2 618.9 74.6698 618.9 74.0417V64.7219C618.9 64.0822 619.421 63.5636 620.047 63.5636H620.05C625.377 63.5636 629.765 59.4908 630.337 54.2545H613.147ZM652.247 54.2545C651.614 54.2545 651.1 53.7294 651.1 53.0871V25.1675C651.1 24.5227 651.618 24 652.253 24H679.818C680.454 24 680.971 24.5251 680.971 25.1675L681 54.2545C680.372 65.9241 670.832 75.2 659.15 75.2H659.147C658.513 75.2 658 74.6698 658 74.0417V64.7219C658 64.0822 658.521 63.5636 659.147 63.5636H659.15C664.477 63.5636 668.865 59.4908 669.437 54.2545H652.247Z" fill="white" fill-opacity="0.08"/>
</g>
<g clip-path="url(#clip1)">
<path fill-rule="evenodd" clip-rule="evenodd" d="M67.8529 20.9454C68.4864 20.9454 69 21.4706 69 22.1129V50.0325C69 50.6773 68.4816 51.2 67.8474 51.2H40.2824C39.6458 51.2 39.1292 50.6749 39.1286 50.0325L39.1 20.9454C39.7278 9.27583 49.2683 -2.19345e-05 60.95 -2.19345e-05H60.9533C61.5866 -2.19345e-05 62.1 0.530198 62.1 1.15825V10.4781C62.1 11.1178 61.5788 11.6363 60.9533 11.6363H60.95C55.6226 11.6363 51.2352 15.7091 50.6632 20.9454H67.8529ZM28.7529 20.9454C29.3864 20.9454 29.9 21.4706 29.9 22.1129V50.0325C29.9 50.6773 29.3816 51.2 28.7474 51.2H1.18239C0.545805 51.2 0.0292354 50.6749 0.028604 50.0325L1.43051e-06 20.9454C0.62776 9.27583 10.1683 -2.19345e-05 21.85 -2.19345e-05H21.8533C22.4866 -2.19345e-05 23 0.530198 23 1.15825V10.4781C23 11.1178 22.4788 11.6363 21.8533 11.6363H21.85C16.5226 11.6363 12.1352 15.7091 11.5632 20.9454H28.7529Z" fill="white" fill-opacity="0.08"/>
</g>
<path d="M79.654 28.06L77.262 45.038C77.158 45.6793 76.8113 46 76.222 46H73.96C73.4747 46 73.1367 45.714 72.946 45.142L68.76 32.922C68.4307 31.986 68.1967 31.1713 68.058 30.478H67.668C67.6507 31.206 67.5813 32.0207 67.46 32.922L65.692 46H63.092L65.458 29.022C65.562 28.3807 65.926 28.06 66.55 28.06H68.76C69.228 28.06 69.5747 28.346 69.8 28.918L73.83 40.8C74.3673 42.516 74.6447 43.4173 74.662 43.504H75.104C75.156 42.516 75.2427 41.6147 75.364 40.8L77.08 28.06H79.654ZM88.3394 32.974C90.5234 32.974 92.0314 33.5027 92.8634 34.56C93.6954 35.6 93.9381 37.3333 93.5914 39.76C93.2621 42.152 92.5774 43.8507 91.5374 44.856C90.4974 45.844 88.9114 46.338 86.7794 46.338C84.6128 46.338 83.1048 45.818 82.2554 44.778C81.4234 43.7207 81.1721 41.9873 81.5014 39.578C81.8308 37.186 82.5068 35.4873 83.5294 34.482C84.5694 33.4767 86.1728 32.974 88.3394 32.974ZM88.3394 35.106C87.0048 35.106 86.0254 35.4267 85.4014 36.068C84.7948 36.7093 84.3614 37.94 84.1014 39.76C83.8588 41.5107 83.9194 42.698 84.2834 43.322C84.6648 43.9287 85.4968 44.232 86.7794 44.232C88.1314 44.232 89.1108 43.9027 89.7174 43.244C90.3241 42.568 90.7488 41.346 90.9914 39.578C91.2514 37.8273 91.1908 36.6487 90.8094 36.042C90.4454 35.418 89.6221 35.106 88.3394 35.106ZM100.934 27.8L100.232 33.052C100.076 34.196 99.8507 35.1667 99.556 35.964C100.388 35.132 101.298 34.43 102.286 33.858C103.291 33.286 104.219 33 105.068 33C106.073 33 106.845 33.1907 107.382 33.572C107.919 33.936 108.301 34.6293 108.526 35.652C108.751 36.6573 108.717 38.044 108.422 39.812C108.231 41.2333 107.963 42.3947 107.616 43.296C107.269 44.18 106.819 44.8387 106.264 45.272C105.709 45.7053 105.146 45.9913 104.574 46.13C104.002 46.2687 103.265 46.338 102.364 46.338C100.249 46.338 98.1173 46.026 95.968 45.402L98.438 27.8H100.934ZM99.504 37.94L98.646 44.18C99.894 44.232 100.821 44.258 101.428 44.258C103.075 44.258 104.158 43.998 104.678 43.478C105.198 42.9407 105.597 41.658 105.874 39.63C106.117 37.7407 106.143 36.5273 105.952 35.99C105.761 35.4527 105.267 35.184 104.47 35.184C103.239 35.184 101.584 36.1027 99.504 37.94ZM118.021 32.974C120.205 32.974 121.713 33.5027 122.545 34.56C123.377 35.6 123.62 37.3333 123.273 39.76C122.944 42.152 122.259 43.8507 121.219 44.856C120.179 45.844 118.593 46.338 116.461 46.338C114.294 46.338 112.786 45.818 111.937 44.778C111.105 43.7207 110.854 41.9873 111.183 39.578C111.512 37.186 112.188 35.4873 113.211 34.482C114.251 33.4767 115.854 32.974 118.021 32.974ZM118.021 35.106C116.686 35.106 115.707 35.4267 115.083 36.068C114.476 36.7093 114.043 37.94 113.783 39.76C113.54 41.5107 113.601 42.698 113.965 43.322C114.346 43.9287 115.178 44.232 116.461 44.232C117.813 44.232 118.792 43.9027 119.399 43.244C120.006 42.568 120.43 41.346 120.673 39.578C120.933 37.8273 120.872 36.6487 120.491 36.042C120.127 35.418 119.304 35.106 118.021 35.106ZM139.274 27.8L136.726 46H134.75L134.88 43.348C133.077 45.324 131.162 46.312 129.134 46.312C127.799 46.312 126.854 45.8007 126.3 44.778C125.745 43.738 125.641 41.9787 125.988 39.5C126.196 38.096 126.464 36.952 126.794 36.068C127.14 35.1667 127.582 34.4993 128.12 34.066C128.674 33.6327 129.238 33.3467 129.81 33.208C130.382 33.052 131.11 32.974 131.994 32.974C133.294 32.974 134.672 33.0867 136.128 33.312C136.128 32.7227 136.188 31.9167 136.31 30.894L136.752 27.8H139.274ZM134.854 41.372L135.712 35.106C134.932 35.0713 134.022 35.054 132.982 35.054C132.115 35.054 131.448 35.0973 130.98 35.184C130.529 35.2707 130.122 35.4873 129.758 35.834C129.411 36.1807 129.16 36.64 129.004 37.212C128.848 37.784 128.692 38.6073 128.536 39.682C128.293 41.4847 128.258 42.6807 128.432 43.27C128.605 43.842 129.082 44.128 129.862 44.128C130.642 44.128 131.404 43.92 132.15 43.504C132.895 43.0707 133.796 42.36 134.854 41.372ZM150.875 33.312H153.501C152.565 37.4373 151.343 40.93 149.835 43.79C148.483 46.3553 147.14 48.1753 145.805 49.25C144.488 50.3247 142.911 51.018 141.073 51.33L140.605 49.536C141.715 49.276 142.685 48.886 143.517 48.366C144.349 47.846 145.147 47.0573 145.909 46H144.739C144.341 46 144.003 45.896 143.725 45.688C143.448 45.4627 143.275 45.1593 143.205 44.778L140.761 33.312H143.413L145.337 43.582C145.389 43.8767 145.563 44.024 145.857 44.024H147.131C147.201 43.9027 147.296 43.7293 147.417 43.504C147.539 43.2613 147.617 43.1053 147.651 43.036C149.177 39.864 150.251 36.6227 150.875 33.312ZM171.12 43.894L171.276 45.584C170.045 46.0693 168.303 46.312 166.05 46.312C163.883 46.312 162.384 45.7487 161.552 44.622C160.72 43.478 160.46 41.71 160.772 39.318C161.101 36.874 161.768 35.21 162.774 34.326C163.796 33.4247 165.469 32.974 167.792 32.974C169.768 32.974 171.111 33.3207 171.822 34.014C172.532 34.7073 172.792 35.73 172.602 37.082C172.394 38.3127 171.908 39.2053 171.146 39.76C170.383 40.2973 169.213 40.6267 167.636 40.748L163.242 41.138C163.224 42.334 163.476 43.1487 163.996 43.582C164.516 43.998 165.33 44.206 166.44 44.206C167.618 44.206 169.178 44.102 171.12 43.894ZM163.398 39.266L167.636 38.876C168.433 38.824 169.014 38.6593 169.378 38.382C169.742 38.0873 169.976 37.5847 170.08 36.874C170.184 36.0593 170.045 35.5567 169.664 35.366C169.3 35.1753 168.546 35.08 167.402 35.08C166.084 35.08 165.148 35.3573 164.594 35.912C164.056 36.4493 163.658 37.5673 163.398 39.266ZM184.615 33.312H187.215C186.747 35.756 185.993 38.1827 184.953 40.592C184.225 42.2907 183.523 43.5993 182.847 44.518C182.483 45.038 182.111 45.4193 181.729 45.662C181.348 45.8873 180.819 46 180.143 46H177.985C177.517 46 177.24 45.7747 177.153 45.324L174.709 33.312H177.335L179.181 44.024H179.571C179.918 44.024 180.195 43.972 180.403 43.868C180.611 43.764 180.828 43.556 181.053 43.244C181.556 42.5853 182.163 41.3633 182.873 39.578C183.636 37.7407 184.217 35.652 184.615 33.312ZM199.075 43.894L199.231 45.584C198 46.0693 196.258 46.312 194.005 46.312C191.838 46.312 190.339 45.7487 189.507 44.622C188.675 43.478 188.415 41.71 188.727 39.318C189.056 36.874 189.723 35.21 190.729 34.326C191.751 33.4247 193.424 32.974 195.747 32.974C197.723 32.974 199.066 33.3207 199.777 34.014C200.487 34.7073 200.747 35.73 200.557 37.082C200.349 38.3127 199.863 39.2053 199.101 39.76C198.338 40.2973 197.168 40.6267 195.591 40.748L191.197 41.138C191.179 42.334 191.431 43.1487 191.951 43.582C192.471 43.998 193.285 44.206 194.395 44.206C195.573 44.206 197.133 44.102 199.075 43.894ZM191.353 39.266L195.591 38.876C196.388 38.824 196.969 38.6593 197.333 38.382C197.697 38.0873 197.931 37.5847 198.035 36.874C198.139 36.0593 198 35.5567 197.619 35.366C197.255 35.1753 196.501 35.08 195.357 35.08C194.039 35.08 193.103 35.3573 192.549 35.912C192.011 36.4493 191.613 37.5673 191.353 39.266ZM212.388 32.974L211.764 35.34H211.062C210.404 35.34 209.728 35.5393 209.034 35.938C208.341 36.3193 207.344 36.978 206.044 37.914L204.926 46H202.404L204.198 33.312H206.122L205.992 36.224C208.107 34.0573 210.014 32.974 211.712 32.974H212.388ZM222.113 44.024H222.477C222.98 44.024 223.404 43.6947 223.751 43.036C224.15 42.2907 224.574 41.138 225.025 39.578C225.424 38.122 225.796 36.2413 226.143 33.936C226.195 33.52 226.429 33.312 226.845 33.312H229.601C229.965 33.312 230.173 33.5027 230.225 33.884L231.395 44.024H231.707C232.071 44.024 232.426 43.7467 232.773 43.192C233.466 42.1173 234.047 40.9127 234.515 39.578C235.174 37.7753 235.676 35.6867 236.023 33.312H238.649C238.094 35.9467 237.358 38.3733 236.439 40.592C235.642 42.464 234.922 43.8073 234.281 44.622C233.588 45.5407 232.79 46 231.889 46H230.225C230.017 46 229.844 45.9393 229.705 45.818C229.566 45.6793 229.48 45.5147 229.445 45.324L228.353 34.95H228.015C227.876 36.51 227.556 38.2607 227.053 40.202C226.585 41.762 226.056 43.0793 225.467 44.154C224.791 45.3847 223.76 46 222.373 46H220.943C220.492 46 220.224 45.7747 220.137 45.324L217.797 33.312H220.423L222.113 44.024ZM246.98 32.974C249.164 32.974 250.672 33.5027 251.504 34.56C252.336 35.6 252.579 37.3333 252.232 39.76C251.903 42.152 251.218 43.8507 250.178 44.856C249.138 45.844 247.552 46.338 245.42 46.338C243.253 46.338 241.745 45.818 240.896 44.778C240.064 43.7207 239.813 41.9873 240.142 39.578C240.471 37.186 241.147 35.4873 242.17 34.482C243.21 33.4767 244.813 32.974 246.98 32.974ZM246.98 35.106C245.645 35.106 244.666 35.4267 244.042 36.068C243.435 36.7093 243.002 37.94 242.742 39.76C242.499 41.5107 242.56 42.698 242.924 43.322C243.305 43.9287 244.137 44.232 245.42 44.232C246.772 44.232 247.751 43.9027 248.358 43.244C248.965 42.568 249.389 41.346 249.632 39.578C249.892 37.8273 249.831 36.6487 249.45 36.042C249.086 35.418 248.263 35.106 246.98 35.106ZM258.353 33.312L258.223 36.042C260.511 33.9967 262.513 32.974 264.229 32.974C265.303 32.974 266.118 33.286 266.673 33.91C267.227 34.5167 267.418 35.392 267.245 36.536L265.893 46H263.397L264.619 37.16C264.723 36.3627 264.688 35.8253 264.515 35.548C264.359 35.2533 264.003 35.106 263.449 35.106C262.738 35.106 261.993 35.3227 261.213 35.756C260.45 36.1893 259.445 36.9 258.197 37.888L257.079 46H254.557L256.351 33.312H258.353ZM286.53 46H284.554L284.658 43.66C283.133 45.428 281.313 46.312 279.198 46.312C277.656 46.312 276.616 45.8093 276.078 44.804C275.541 43.7987 275.446 42.0307 275.792 39.5C275.983 38.096 276.252 36.952 276.598 36.068C276.945 35.1667 277.404 34.4993 277.976 34.066C278.548 33.6327 279.138 33.3467 279.744 33.208C280.351 33.052 281.131 32.974 282.084 32.974C284.147 32.974 286.218 33.1993 288.298 33.65L286.53 46ZM284.632 41.424L285.542 35.132C283.948 35.0973 283.055 35.08 282.864 35.08C281.963 35.08 281.278 35.1233 280.81 35.21C280.342 35.2967 279.926 35.522 279.562 35.886C279.216 36.2327 278.956 36.6833 278.782 37.238C278.626 37.7927 278.47 38.6073 278.314 39.682C278.072 41.5713 278.037 42.7847 278.21 43.322C278.401 43.8593 278.904 44.128 279.718 44.128C280.516 44.128 281.296 43.9113 282.058 43.478C282.821 43.0273 283.679 42.3427 284.632 41.424ZM310.229 30.374H304.535L302.325 46H299.725L301.935 30.374H296.267L296.605 28.06H310.541L310.229 30.374ZM319.553 40.592H312.377L309.985 46H307.229L315.289 28.71C315.462 28.2767 315.8 28.06 316.303 28.06H318.955C319.18 28.06 319.371 28.138 319.527 28.294C319.7 28.4327 319.795 28.606 319.813 28.814L323.063 46H320.463L319.553 40.592ZM319.189 38.304L318.071 31.57C318.001 31.2233 317.932 30.7033 317.863 30.01H317.083L316.407 31.57L313.391 38.304H319.189ZM333.888 33.312L333.758 36.016C335.769 33.988 337.597 32.974 339.244 32.974C340.215 32.974 340.96 33.2253 341.48 33.728C342 34.2307 342.251 34.9327 342.234 35.834C343.222 34.8287 344.132 34.1007 344.964 33.65C345.796 33.1993 346.637 32.974 347.486 32.974C348.595 32.974 349.401 33.2947 349.904 33.936C350.424 34.56 350.606 35.4267 350.45 36.536L349.124 46H346.602L347.85 37.16C347.954 36.3973 347.893 35.8687 347.668 35.574C347.443 35.262 347.053 35.106 346.498 35.106C345.891 35.106 345.276 35.3053 344.652 35.704C344.045 36.0853 343.161 36.8307 342 37.94L340.856 46H338.438L339.66 37.16C339.764 36.432 339.721 35.912 339.53 35.6C339.339 35.2707 338.932 35.106 338.308 35.106C337.684 35.106 337.069 35.2967 336.462 35.678C335.855 36.0593 334.971 36.7873 333.81 37.862L332.666 46H330.17L331.964 33.312H333.888ZM363.972 46H361.996L362.1 43.66C360.574 45.428 358.754 46.312 356.64 46.312C355.097 46.312 354.057 45.8093 353.52 44.804C352.982 43.7987 352.887 42.0307 353.234 39.5C353.424 38.096 353.693 36.952 354.04 36.068C354.386 35.1667 354.846 34.4993 355.418 34.066C355.99 33.6327 356.579 33.3467 357.186 33.208C357.792 33.052 358.572 32.974 359.526 32.974C361.588 32.974 363.66 33.1993 365.74 33.65L363.972 46ZM362.074 41.424L362.984 35.132C361.389 35.0973 360.496 35.08 360.306 35.08C359.404 35.08 358.72 35.1233 358.252 35.21C357.784 35.2967 357.368 35.522 357.004 35.886C356.657 36.2327 356.397 36.6833 356.224 37.238C356.068 37.7927 355.912 38.6073 355.756 39.682C355.513 41.5713 355.478 42.7847 355.652 43.322C355.842 43.8593 356.345 44.128 357.16 44.128C357.957 44.128 358.737 43.9113 359.5 43.478C360.262 43.0273 361.12 42.3427 362.074 41.424ZM372.791 35.262L371.777 42.386C371.691 42.9927 371.743 43.4087 371.933 43.634C372.141 43.842 372.549 43.946 373.155 43.946H375.053L375.157 45.896C374.395 46.1213 373.407 46.234 372.193 46.234C371.067 46.234 370.252 45.922 369.749 45.298C369.264 44.674 369.099 43.7813 369.255 42.62L370.295 35.262H367.981L368.215 33.442L370.581 33.312L371.127 29.594H373.597L373.077 33.312H376.977L376.717 35.262H372.791ZM387.605 43.92L387.787 45.636C386.487 46.0867 384.997 46.312 383.315 46.312C381.079 46.312 379.563 45.792 378.765 44.752C377.968 43.712 377.743 41.9787 378.089 39.552C378.419 37.1253 379.095 35.4267 380.117 34.456C381.14 33.468 382.743 32.974 384.927 32.974C386.626 32.974 388.013 33.1993 389.087 33.65L388.697 35.21C387.657 35.1407 386.531 35.106 385.317 35.106C383.792 35.106 382.691 35.418 382.015 36.042C381.357 36.6487 380.915 37.8793 380.689 39.734C380.464 41.5887 380.559 42.802 380.975 43.374C381.409 43.9287 382.345 44.206 383.783 44.206C385.257 44.206 386.531 44.1107 387.605 43.92ZM395.492 27.8L394.842 32.792C394.669 33.9533 394.461 34.9933 394.218 35.912C396.437 33.9533 398.395 32.974 400.094 32.974C401.169 32.974 401.983 33.286 402.538 33.91C403.093 34.5167 403.283 35.392 403.11 36.536L401.758 46H399.262L400.484 37.16C400.588 36.3627 400.553 35.8253 400.38 35.548C400.224 35.2533 399.869 35.106 399.314 35.106C398.603 35.106 397.858 35.3227 397.078 35.756C396.315 36.1893 395.31 36.9 394.062 37.888L392.944 46H390.422L392.996 27.8H395.492ZM416.286 27.8L415.584 33.052C415.428 34.196 415.202 35.1667 414.908 35.964C415.74 35.132 416.65 34.43 417.638 33.858C418.643 33.286 419.57 33 420.42 33C421.425 33 422.196 33.1907 422.734 33.572C423.271 33.936 423.652 34.6293 423.878 35.652C424.103 36.6573 424.068 38.044 423.774 39.812C423.583 41.2333 423.314 42.3947 422.968 43.296C422.621 44.18 422.17 44.8387 421.616 45.272C421.061 45.7053 420.498 45.9913 419.926 46.13C419.354 46.2687 418.617 46.338 417.716 46.338C415.601 46.338 413.469 46.026 411.32 45.402L413.79 27.8H416.286ZM414.856 37.94L413.998 44.18C415.246 44.232 416.173 44.258 416.78 44.258C418.426 44.258 419.51 43.998 420.03 43.478C420.55 42.9407 420.948 41.658 421.226 39.63C421.468 37.7407 421.494 36.5273 421.304 35.99C421.113 35.4527 420.619 35.184 419.822 35.184C418.591 35.184 416.936 36.1027 414.856 37.94ZM436.494 33.312H439.12C438.184 37.4373 436.962 40.93 435.454 43.79C434.102 46.3553 432.759 48.1753 431.424 49.25C430.107 50.3247 428.53 51.018 426.692 51.33L426.224 49.536C427.334 49.276 428.304 48.886 429.136 48.366C429.968 47.846 430.766 47.0573 431.528 46H430.358C429.96 46 429.622 45.896 429.344 45.688C429.067 45.4627 428.894 45.1593 428.824 44.778L426.38 33.312H429.032L430.956 43.582C431.008 43.8767 431.182 44.024 431.476 44.024H432.75C432.82 43.9027 432.915 43.7293 433.036 43.504C433.158 43.2613 433.236 43.1053 433.27 43.036C434.796 39.864 435.87 36.6227 436.494 33.312ZM456.037 32.974L455.413 35.34H454.711C454.052 35.34 453.376 35.5393 452.683 35.938C451.989 36.3193 450.993 36.978 449.693 37.914L448.575 46H446.053L447.847 33.312H449.771L449.641 36.224C451.755 34.0573 453.662 32.974 455.361 32.974H456.037ZM466.997 43.894L467.153 45.584C465.922 46.0693 464.18 46.312 461.927 46.312C459.76 46.312 458.261 45.7487 457.429 44.622C456.597 43.478 456.337 41.71 456.649 39.318C456.978 36.874 457.645 35.21 458.651 34.326C459.673 33.4247 461.346 32.974 463.669 32.974C465.645 32.974 466.988 33.3207 467.699 34.014C468.409 34.7073 468.669 35.73 468.479 37.082C468.271 38.3127 467.785 39.2053 467.023 39.76C466.26 40.2973 465.09 40.6267 463.513 40.748L459.119 41.138C459.101 42.334 459.353 43.1487 459.873 43.582C460.393 43.998 461.207 44.206 462.317 44.206C463.495 44.206 465.055 44.102 466.997 43.894ZM459.275 39.266L463.513 38.876C464.31 38.824 464.891 38.6593 465.255 38.382C465.619 38.0873 465.853 37.5847 465.957 36.874C466.061 36.0593 465.922 35.5567 465.541 35.366C465.177 35.1753 464.423 35.08 463.279 35.08C461.961 35.08 461.025 35.3573 460.471 35.912C459.933 36.4493 459.535 37.5673 459.275 39.266ZM476.852 41.268L473.446 39.708C472.493 39.2573 471.817 38.7547 471.418 38.2C471.019 37.628 470.881 36.9 471.002 36.016C471.141 34.8547 471.635 34.0487 472.484 33.598C473.333 33.1473 474.625 32.9393 476.358 32.974C478.317 33.0087 480.128 33.156 481.792 33.416L481.48 35.21C479.279 35.1407 477.597 35.0973 476.436 35.08C475.292 35.08 474.521 35.1407 474.122 35.262C473.741 35.3833 473.515 35.6953 473.446 36.198C473.394 36.6313 473.472 36.952 473.68 37.16C473.905 37.368 474.33 37.6107 474.954 37.888L478.386 39.448C479.426 39.9333 480.137 40.436 480.518 40.956C480.899 41.4587 481.029 42.178 480.908 43.114C480.839 43.686 480.691 44.1713 480.466 44.57C480.241 44.9513 479.972 45.2547 479.66 45.48C479.365 45.7053 478.949 45.8787 478.412 46C477.892 46.1213 477.372 46.1993 476.852 46.234C476.349 46.2687 475.699 46.286 474.902 46.286C474.07 46.286 473.411 46.2687 472.926 46.234C472.458 46.2167 471.929 46.1647 471.34 46.078C470.768 46.0087 470.317 45.9567 469.988 45.922L470.274 44.05C471.245 44.1367 472.571 44.18 474.252 44.18C475.847 44.18 476.921 44.0933 477.476 43.92C478.031 43.7467 478.351 43.4 478.438 42.88C478.455 42.7933 478.464 42.7067 478.464 42.62C478.464 42.5333 478.455 42.464 478.438 42.412C478.438 42.3427 478.412 42.282 478.36 42.23C478.325 42.1607 478.291 42.1087 478.256 42.074C478.239 42.022 478.195 41.97 478.126 41.918C478.057 41.866 477.996 41.8227 477.944 41.788C477.892 41.7533 477.814 41.71 477.71 41.658C477.606 41.606 477.519 41.5713 477.45 41.554C477.398 41.5193 477.303 41.476 477.164 41.424C477.043 41.3547 476.939 41.3027 476.852 41.268ZM486.779 27.904H487.975C488.218 27.904 488.4 27.9733 488.521 28.112C488.643 28.2507 488.686 28.4413 488.651 28.684L488.469 30.14C488.4 30.608 488.14 30.842 487.689 30.842H486.493C485.973 30.842 485.739 30.5733 485.791 30.036L486.025 28.58C486.06 28.1293 486.311 27.904 486.779 27.904ZM486.155 46H483.659L485.427 33.312H487.923L486.155 46ZM503.003 33.65L501.287 45.688C500.836 49.4667 498.331 51.382 493.773 51.434C492.005 51.434 490.601 51.2693 489.561 50.94L489.821 49.276C491.19 49.3107 492.533 49.3193 493.851 49.302C496.711 49.2673 498.34 48.236 498.739 46.208C499.033 44.7347 499.397 43.6773 499.831 43.036C499.12 44.0067 498.236 44.7953 497.179 45.402C496.139 46.0087 495.003 46.312 493.773 46.312C492.351 46.312 491.355 45.8093 490.783 44.804C490.211 43.7987 490.107 42.0307 490.471 39.5C490.679 38.0787 490.956 36.926 491.303 36.042C491.649 35.1407 492.1 34.4733 492.655 34.04C493.209 33.6067 493.764 33.3207 494.319 33.182C494.891 33.0433 495.619 32.974 496.503 32.974C498.721 32.974 500.871 33.1993 502.951 33.65H503.003ZM499.337 41.424L500.247 35.132C498.652 35.0973 497.733 35.08 497.491 35.08C495.844 35.08 494.752 35.3487 494.215 35.886C493.695 36.406 493.296 37.6713 493.019 39.682C492.776 41.5367 492.741 42.7413 492.915 43.296C493.105 43.8507 493.599 44.128 494.397 44.128C495.211 44.128 496 43.9113 496.763 43.478C497.525 43.0447 498.383 42.36 499.337 41.424ZM508.831 33.312L508.701 36.042C510.989 33.9967 512.991 32.974 514.707 32.974C515.782 32.974 516.596 33.286 517.151 33.91C517.706 34.5167 517.896 35.392 517.723 36.536L516.371 46H513.875L515.097 37.16C515.201 36.3627 515.166 35.8253 514.993 35.548C514.837 35.2533 514.482 35.106 513.927 35.106C513.216 35.106 512.471 35.3227 511.691 35.756C510.928 36.1893 509.923 36.9 508.675 37.888L507.557 46H505.035L506.829 33.312H508.831ZM523.367 27.904H524.563C524.806 27.904 524.988 27.9733 525.109 28.112C525.23 28.2507 525.274 28.4413 525.239 28.684L525.057 30.14C524.988 30.608 524.728 30.842 524.277 30.842H523.081C522.561 30.842 522.327 30.5733 522.379 30.036L522.613 28.58C522.648 28.1293 522.899 27.904 523.367 27.904ZM522.743 46H520.247L522.015 33.312H524.511L522.743 46ZM530.439 33.312L530.309 36.042C532.597 33.9967 534.599 32.974 536.315 32.974C537.389 32.974 538.204 33.286 538.759 33.91C539.313 34.5167 539.504 35.392 539.331 36.536L537.979 46H535.483L536.705 37.16C536.809 36.3627 536.774 35.8253 536.601 35.548C536.445 35.2533 536.089 35.106 535.535 35.106C534.824 35.106 534.079 35.3227 533.299 35.756C532.536 36.1893 531.531 36.9 530.283 37.888L529.165 46H526.643L528.437 33.312H530.439ZM554.673 33.65L552.957 45.688C552.506 49.4667 550.001 51.382 545.443 51.434C543.675 51.434 542.271 51.2693 541.231 50.94L541.491 49.276C542.86 49.3107 544.203 49.3193 545.521 49.302C548.381 49.2673 550.01 48.236 550.409 46.208C550.703 44.7347 551.067 43.6773 551.501 43.036C550.79 44.0067 549.906 44.7953 548.849 45.402C547.809 46.0087 546.673 46.312 545.443 46.312C544.021 46.312 543.025 45.8093 542.453 44.804C541.881 43.7987 541.777 42.0307 542.141 39.5C542.349 38.0787 542.626 36.926 542.973 36.042C543.319 35.1407 543.77 34.4733 544.325 34.04C544.879 33.6067 545.434 33.3207 545.989 33.182C546.561 33.0433 547.289 32.974 548.173 32.974C550.391 32.974 552.541 33.1993 554.621 33.65H554.673ZM551.007 41.424L551.917 35.132C550.322 35.0973 549.403 35.08 549.161 35.08C547.514 35.08 546.422 35.3487 545.885 35.886C545.365 36.406 544.966 37.6713 544.689 39.682C544.446 41.5367 544.411 42.7413 544.585 43.296C544.775 43.8507 545.269 44.128 546.067 44.128C546.881 44.128 547.67 43.9113 548.433 43.478C549.195 43.0447 550.053 42.36 551.007 41.424ZM576.602 30.374H570.908L568.698 46H566.098L568.308 30.374H562.64L562.978 28.06H576.914L576.602 30.374ZM580.064 27.904H581.26C581.503 27.904 581.685 27.9733 581.806 28.112C581.928 28.2507 581.971 28.4413 581.936 28.684L581.754 30.14C581.685 30.608 581.425 30.842 580.974 30.842H579.778C579.258 30.842 579.024 30.5733 579.076 30.036L579.31 28.58C579.345 28.1293 579.596 27.904 580.064 27.904ZM579.44 46H576.944L578.712 33.312H581.208L579.44 46ZM594.026 43.894L594.182 45.584C592.951 46.0693 591.209 46.312 588.956 46.312C586.789 46.312 585.29 45.7487 584.458 44.622C583.626 43.478 583.366 41.71 583.678 39.318C584.007 36.874 584.674 35.21 585.68 34.326C586.702 33.4247 588.375 32.974 590.698 32.974C592.674 32.974 594.017 33.3207 594.728 34.014C595.438 34.7073 595.698 35.73 595.508 37.082C595.3 38.3127 594.814 39.2053 594.052 39.76C593.289 40.2973 592.119 40.6267 590.542 40.748L586.148 41.138C586.13 42.334 586.382 43.1487 586.902 43.582C587.422 43.998 588.236 44.206 589.346 44.206C590.524 44.206 592.084 44.102 594.026 43.894ZM586.304 39.266L590.542 38.876C591.339 38.824 591.92 38.6593 592.284 38.382C592.648 38.0873 592.882 37.5847 592.986 36.874C593.09 36.0593 592.951 35.5567 592.57 35.366C592.206 35.1753 591.452 35.08 590.308 35.08C588.99 35.08 588.054 35.3573 587.5 35.912C586.962 36.4493 586.564 37.5673 586.304 39.266ZM607.339 32.974L606.715 35.34H606.013C605.355 35.34 604.679 35.5393 603.985 35.938C603.292 36.3193 602.295 36.978 600.995 37.914L599.877 46H597.355L599.149 33.312H601.073L600.943 36.224C603.058 34.0573 604.965 32.974 606.663 32.974H607.339ZM618.715 46H616.115L618.039 32.09C618.143 31.3793 618.256 30.8333 618.377 30.452L613.905 31.83L613.853 29.88L618.611 28.06H621.237L618.715 46ZM624.498 42.776H625.33C625.971 42.776 626.257 43.0967 626.188 43.738L626.006 45.116C625.936 45.7053 625.607 46 625.018 46H624.186C623.51 46 623.224 45.6793 623.328 45.038L623.536 43.634C623.605 43.062 623.926 42.776 624.498 42.776Z" fill="#999999"/>
<path d="M71.724 74.098H63.742L63.924 72.798H71.906L71.724 74.098ZM96.1008 62.06L93.5788 80H91.8628L93.1108 71.16H84.0888L82.8408 80H81.1248L83.6468 62.06H85.3628L84.2968 69.678H93.3188L94.3848 62.06H96.1008ZM108.271 78.57L108.401 79.688C107.205 80.104 105.515 80.312 103.331 80.312C101.216 80.312 99.7777 79.7833 99.0151 78.726C98.2697 77.6513 98.0704 75.9007 98.4171 73.474C98.7637 70.978 99.4311 69.288 100.419 68.404C101.407 67.52 102.993 67.078 105.177 67.078C106.997 67.078 108.271 67.3987 108.999 68.04C109.744 68.664 109.978 69.6693 109.701 71.056C109.476 72.1827 109.016 72.9887 108.323 73.474C107.647 73.9593 106.581 74.2713 105.125 74.41L99.9511 74.904C99.8471 76.464 100.081 77.5213 100.653 78.076C101.225 78.6307 102.222 78.908 103.643 78.908C104.891 78.908 106.434 78.7953 108.271 78.57ZM100.107 73.63L105.125 73.136C106.078 73.032 106.763 72.8327 107.179 72.538C107.595 72.226 107.881 71.6887 108.037 70.926C108.262 69.9033 108.132 69.2447 107.647 68.95C107.162 68.638 106.295 68.482 105.047 68.482C104.215 68.482 103.548 68.5427 103.045 68.664C102.542 68.7853 102.083 69.028 101.667 69.392C101.268 69.756 100.948 70.2673 100.705 70.926C100.48 71.5673 100.28 72.434 100.107 73.526V73.63ZM118.676 75.034L114.932 73.474C114.014 73.0753 113.355 72.6333 112.956 72.148C112.575 71.6453 112.445 70.926 112.566 69.99C112.74 68.794 113.225 68.0053 114.022 67.624C114.82 67.2253 116.068 67.0433 117.766 67.078C119.569 67.1127 121.285 67.2427 122.914 67.468L122.706 68.638C121.129 68.5513 119.5 68.4993 117.818 68.482C116.466 68.4647 115.548 68.5513 115.062 68.742C114.577 68.9153 114.282 69.3747 114.178 70.12C114.092 70.7093 114.17 71.1427 114.412 71.42C114.655 71.68 115.106 71.9487 115.764 72.226L119.534 73.786C120.54 74.202 121.233 74.6527 121.614 75.138C121.996 75.606 122.126 76.308 122.004 77.244C121.935 77.7987 121.788 78.2667 121.562 78.648C121.337 79.0293 121.077 79.3327 120.782 79.558C120.505 79.766 120.115 79.922 119.612 80.026C119.11 80.1473 118.616 80.2253 118.13 80.26C117.645 80.2947 117.021 80.312 116.258 80.312C115.062 80.312 113.494 80.1907 111.552 79.948L111.76 78.726C112.835 78.8473 114.23 78.908 115.946 78.908C117.61 78.8733 118.737 78.7433 119.326 78.518C119.916 78.2927 120.262 77.816 120.366 77.088C120.436 76.6893 120.392 76.36 120.236 76.1C120.098 75.8227 119.924 75.632 119.716 75.528C119.526 75.4067 119.179 75.242 118.676 75.034ZM131.753 75.034L128.009 73.474C127.09 73.0753 126.431 72.6333 126.033 72.148C125.651 71.6453 125.521 70.926 125.643 69.99C125.816 68.794 126.301 68.0053 127.099 67.624C127.896 67.2253 129.144 67.0433 130.843 67.078C132.645 67.1127 134.361 67.2427 135.991 67.468L135.783 68.638C134.205 68.5513 132.576 68.4993 130.895 68.482C129.543 68.4647 128.624 68.5513 128.139 68.742C127.653 68.9153 127.359 69.3747 127.255 70.12C127.168 70.7093 127.246 71.1427 127.489 71.42C127.731 71.68 128.182 71.9487 128.841 72.226L132.611 73.786C133.616 74.202 134.309 74.6527 134.691 75.138C135.072 75.606 135.202 76.308 135.081 77.244C135.011 77.7987 134.864 78.2667 134.639 78.648C134.413 79.0293 134.153 79.3327 133.859 79.558C133.581 79.766 133.191 79.922 132.689 80.026C132.186 80.1473 131.692 80.2253 131.207 80.26C130.721 80.2947 130.097 80.312 129.335 80.312C128.139 80.312 126.57 80.1907 124.629 79.948L124.837 78.726C125.911 78.8473 127.307 78.908 129.023 78.908C130.687 78.8733 131.813 78.7433 132.403 78.518C132.992 78.2927 133.339 77.816 133.443 77.088C133.512 76.6893 133.469 76.36 133.313 76.1C133.174 75.8227 133.001 75.632 132.793 75.528C132.602 75.4067 132.255 75.242 131.753 75.034ZM148.651 80H147.377L147.611 77.166C146.779 78.1193 145.843 78.882 144.803 79.454C143.78 80.026 142.757 80.312 141.735 80.312C140.192 80.312 139.187 79.8093 138.719 78.804C138.251 77.7813 138.199 76.048 138.563 73.604C138.771 72.2173 139.022 71.0993 139.317 70.25C139.629 69.4007 140.053 68.742 140.591 68.274C141.128 67.806 141.726 67.494 142.385 67.338C143.043 67.1647 143.893 67.078 144.933 67.078C146.51 67.078 148.339 67.2513 150.419 67.598L148.651 80ZM147.611 75.736L148.625 68.586C146.787 68.5167 145.713 68.482 145.401 68.482C144.603 68.482 143.953 68.5253 143.451 68.612C142.965 68.6987 142.532 68.8373 142.151 69.028C141.769 69.2187 141.457 69.5307 141.215 69.964C140.989 70.3973 140.799 70.9 140.643 71.472C140.487 72.0267 140.339 72.7807 140.201 73.734C139.906 75.71 139.88 77.062 140.123 77.79C140.365 78.5007 140.989 78.856 141.995 78.856C143.693 78.856 145.565 77.816 147.611 75.736ZM156.043 67.416L155.783 70.276C158.209 68.144 160.289 67.078 162.023 67.078C163.132 67.078 163.947 67.3813 164.467 67.988C164.987 68.5947 165.169 69.4613 165.013 70.588L163.661 80H162.023L163.297 70.926C163.418 70.042 163.34 69.418 163.063 69.054C162.803 68.69 162.3 68.508 161.555 68.508C160.757 68.508 159.925 68.7507 159.059 69.236C158.209 69.704 157.117 70.4667 155.783 71.524L154.613 80H152.949L154.743 67.416H156.043ZM170.141 68.56C171.129 67.572 172.671 67.078 174.769 67.078C176.866 67.078 178.296 67.598 179.059 68.638C179.839 69.6607 180.055 71.3767 179.709 73.786C179.379 76.178 178.721 77.868 177.733 78.856C176.745 79.8267 175.211 80.312 173.131 80.312C171.016 80.312 169.577 79.8093 168.815 78.804C168.052 77.7813 167.835 76.0567 168.165 73.63C168.494 71.238 169.153 69.548 170.141 68.56ZM174.769 68.508C173.226 68.508 172.091 68.8893 171.363 69.652C170.652 70.3973 170.158 71.7753 169.881 73.786C169.603 75.7447 169.699 77.088 170.167 77.816C170.635 78.544 171.623 78.908 173.131 78.908C174.673 78.908 175.8 78.5267 176.511 77.764C177.239 77.0013 177.741 75.6233 178.019 73.63C178.296 71.6713 178.201 70.328 177.733 69.6C177.265 68.872 176.277 68.508 174.769 68.508Z" fill="#9F9F9F"/>
<defs>
<clipPath id="clip0">
<rect width="69" height="64" fill="white" transform="translate(612 24)"/>
</clipPath>
<clipPath id="clip1">
<rect width="69" height="64" fill="white"/>
</clipPath>
</defs>
</svg>
