<svg width="637" height="88" viewBox="0 0 637 88" fill="none" xmlns="http://www.w3.org/2000/svg">
<g clip-path="url(#clip0)">
<path fill-rule="evenodd" clip-rule="evenodd" d="M569.147 54.2545C568.514 54.2545 568 53.7294 568 53.0871V25.1675C568 24.5227 568.518 24 569.153 24H596.718C597.354 24 597.871 24.5251 597.871 25.1675L597.9 54.2545C597.272 65.9241 587.732 75.2 576.05 75.2H576.047C575.413 75.2 574.9 74.6698 574.9 74.0417V64.7219C574.9 64.0822 575.421 63.5636 576.047 63.5636H576.05C581.377 63.5636 585.765 59.4908 586.337 54.2545H569.147ZM608.247 54.2545C607.614 54.2545 607.1 53.7294 607.1 53.0871V25.1675C607.1 24.5227 607.618 24 608.253 24H635.818C636.454 24 636.971 24.5251 636.971 25.1675L637 54.2545C636.372 65.9241 626.832 75.2 615.15 75.2H615.147C614.513 75.2 614 74.6698 614 74.0417V64.7219C614 64.0822 614.521 63.5636 615.147 63.5636H615.15C620.477 63.5636 624.865 59.4908 625.437 54.2545H608.247Z" fill="white" fill-opacity="0.08"/>
</g>
<g clip-path="url(#clip1)">
<path fill-rule="evenodd" clip-rule="evenodd" d="M67.8529 20.9456C68.4864 20.9456 69 21.4708 69 22.1131V50.0327C69 50.6775 68.4816 51.2002 67.8474 51.2002H40.2824C39.6458 51.2002 39.1292 50.6751 39.1286 50.0327L39.1 20.9456C39.7278 9.27604 49.2683 0.000190735 60.95 0.000190735H60.9533C61.5866 0.000190735 62.1 0.530411 62.1 1.15847V10.4783C62.1 11.118 61.5788 11.6366 60.9533 11.6366H60.95C55.6226 11.6366 51.2352 15.7093 50.6632 20.9456H67.8529ZM28.7529 20.9456C29.3864 20.9456 29.9 21.4708 29.9 22.1131V50.0327C29.9 50.6775 29.3816 51.2002 28.7474 51.2002H1.1824C0.545807 51.2002 0.0292358 50.6751 0.0286026 50.0327L0 20.9456C0.627762 9.27604 10.1683 0.000190735 21.85 0.000190735H21.8533C22.4866 0.000190735 23 0.530411 23 1.15847V10.4783C23 11.118 22.4788 11.6366 21.8533 11.6366H21.85C16.5226 11.6366 12.1352 15.7093 11.5632 20.9456H28.7529Z" fill="white" fill-opacity="0.08"/>
</g>
<path d="M77.6 30.374H71.906L69.696 46H67.096L69.306 30.374H63.638L63.976 28.06H77.912L77.6 30.374ZM82.8825 27.8L82.2325 32.792C82.0591 33.9533 81.8511 34.9933 81.6085 35.912C83.8271 33.9533 85.7858 32.974 87.4845 32.974C88.5591 32.974 89.3738 33.286 89.9285 33.91C90.4831 34.5167 90.6738 35.392 90.5005 36.536L89.1485 46H86.6525L87.8745 37.16C87.9785 36.3627 87.9438 35.8253 87.7705 35.548C87.6145 35.2533 87.2591 35.106 86.7045 35.106C85.9938 35.106 85.2485 35.3227 84.4685 35.756C83.7058 36.1893 82.7005 36.9 81.4525 37.888L80.3345 46H77.8125L80.3865 27.8H82.8825ZM103.581 43.894L103.737 45.584C102.506 46.0693 100.764 46.312 98.5105 46.312C96.3438 46.312 94.8445 45.7487 94.0125 44.622C93.1805 43.478 92.9205 41.71 93.2325 39.318C93.5618 36.874 94.2292 35.21 95.2345 34.326C96.2572 33.4247 97.9298 32.974 100.253 32.974C102.229 32.974 103.572 33.3207 104.283 34.014C104.993 34.7073 105.253 35.73 105.062 37.082C104.855 38.3127 104.369 39.2053 103.607 39.76C102.844 40.2973 101.674 40.6267 100.097 40.748L95.7025 41.138C95.6852 42.334 95.9365 43.1487 96.4565 43.582C96.9765 43.998 97.7912 44.206 98.9005 44.206C100.079 44.206 101.639 44.102 103.581 43.894ZM95.8585 39.266L100.097 38.876C100.894 38.824 101.475 38.6593 101.839 38.382C102.203 38.0873 102.437 37.5847 102.541 36.874C102.645 36.0593 102.506 35.5567 102.125 35.366C101.761 35.1753 101.007 35.08 99.8625 35.08C98.5452 35.08 97.6092 35.3573 97.0545 35.912C96.5172 36.4493 96.1185 37.5673 95.8585 39.266ZM117.77 27.8L115.716 42.386C115.629 42.958 115.69 43.3653 115.898 43.608C116.106 43.8333 116.504 43.946 117.094 43.946H118.29L118.394 45.922C117.926 46.13 117.12 46.234 115.976 46.234C114.97 46.234 114.208 45.9393 113.688 45.35C113.185 44.7607 113.003 43.9287 113.142 42.854L115.274 27.8H117.77ZM127.568 32.974C129.752 32.974 131.26 33.5027 132.092 34.56C132.924 35.6 133.167 37.3333 132.82 39.76C132.491 42.152 131.806 43.8507 130.766 44.856C129.726 45.844 128.14 46.338 126.008 46.338C123.841 46.338 122.333 45.818 121.484 44.778C120.652 43.7207 120.401 41.9873 120.73 39.578C121.059 37.186 121.735 35.4873 122.758 34.482C123.798 33.4767 125.401 32.974 127.568 32.974ZM127.568 35.106C126.233 35.106 125.254 35.4267 124.63 36.068C124.023 36.7093 123.59 37.94 123.33 39.76C123.087 41.5107 123.148 42.698 123.512 43.322C123.893 43.9287 124.725 44.232 126.008 44.232C127.36 44.232 128.339 43.9027 128.946 43.244C129.553 42.568 129.977 41.346 130.22 39.578C130.48 37.8273 130.419 36.6487 130.038 36.042C129.674 35.418 128.851 35.106 127.568 35.106ZM148.093 33.65L146.377 45.688C145.926 49.4667 143.421 51.382 138.863 51.434C137.095 51.434 135.691 51.2693 134.651 50.94L134.911 49.276C136.28 49.3107 137.623 49.3193 138.941 49.302C141.801 49.2673 143.43 48.236 143.829 46.208C144.123 44.7347 144.487 43.6773 144.921 43.036C144.21 44.0067 143.326 44.7953 142.269 45.402C141.229 46.0087 140.093 46.312 138.863 46.312C137.441 46.312 136.445 45.8093 135.873 44.804C135.301 43.7987 135.197 42.0307 135.561 39.5C135.769 38.0787 136.046 36.926 136.393 36.042C136.739 35.1407 137.19 34.4733 137.744 34.04C138.299 33.6067 138.854 33.3207 139.409 33.182C139.981 33.0433 140.709 32.974 141.593 32.974C143.811 32.974 145.961 33.1993 148.04 33.65H148.093ZM144.427 41.424L145.337 35.132C143.742 35.0973 142.823 35.08 142.581 35.08C140.934 35.08 139.842 35.3487 139.305 35.886C138.785 36.406 138.386 37.6713 138.109 39.682C137.866 41.5367 137.831 42.7413 138.005 43.296C138.195 43.8507 138.689 44.128 139.487 44.128C140.301 44.128 141.09 43.9113 141.853 43.478C142.615 43.0447 143.473 42.36 144.427 41.424ZM153.375 27.904H154.571C154.814 27.904 154.996 27.9733 155.117 28.112C155.238 28.2507 155.282 28.4413 155.247 28.684L155.065 30.14C154.996 30.608 154.736 30.842 154.285 30.842H153.089C152.569 30.842 152.335 30.5733 152.387 30.036L152.621 28.58C152.656 28.1293 152.907 27.904 153.375 27.904ZM152.751 46H150.255L152.023 33.312H154.519L152.751 46ZM166.478 43.92L166.66 45.636C165.36 46.0867 163.87 46.312 162.188 46.312C159.952 46.312 158.436 45.792 157.638 44.752C156.841 43.712 156.616 41.9787 156.962 39.552C157.292 37.1253 157.968 35.4267 158.99 34.456C160.013 33.468 161.616 32.974 163.8 32.974C165.499 32.974 166.886 33.1993 167.96 33.65L167.57 35.21C166.53 35.1407 165.404 35.106 164.19 35.106C162.665 35.106 161.564 35.418 160.888 36.042C160.23 36.6487 159.788 37.8793 159.562 39.734C159.337 41.5887 159.432 42.802 159.848 43.374C160.282 43.9287 161.218 44.206 162.656 44.206C164.13 44.206 165.404 44.1107 166.478 43.92ZM185.745 43.894L185.901 45.584C184.67 46.0693 182.928 46.312 180.675 46.312C178.508 46.312 177.009 45.7487 176.177 44.622C175.345 43.478 175.085 41.71 175.397 39.318C175.726 36.874 176.393 35.21 177.399 34.326C178.421 33.4247 180.094 32.974 182.417 32.974C184.393 32.974 185.736 33.3207 186.447 34.014C187.157 34.7073 187.417 35.73 187.227 37.082C187.019 38.3127 186.533 39.2053 185.771 39.76C185.008 40.2973 183.838 40.6267 182.261 40.748L177.867 41.138C177.849 42.334 178.101 43.1487 178.621 43.582C179.141 43.998 179.955 44.206 181.065 44.206C182.243 44.206 183.803 44.102 185.745 43.894ZM178.023 39.266L182.261 38.876C183.058 38.824 183.639 38.6593 184.003 38.382C184.367 38.0873 184.601 37.5847 184.705 36.874C184.809 36.0593 184.67 35.5567 184.289 35.366C183.925 35.1753 183.171 35.08 182.027 35.08C180.709 35.08 179.773 35.3573 179.219 35.912C178.681 36.4493 178.283 37.5673 178.023 39.266ZM192.87 33.312L192.74 36.042C195.028 33.9967 197.03 32.974 198.746 32.974C199.821 32.974 200.636 33.286 201.19 33.91C201.745 34.5167 201.936 35.392 201.762 36.536L200.41 46H197.914L199.136 37.16C199.24 36.3627 199.206 35.8253 199.032 35.548C198.876 35.2533 198.521 35.106 197.966 35.106C197.256 35.106 196.51 35.3227 195.73 35.756C194.968 36.1893 193.962 36.9 192.714 37.888L191.596 46H189.074L190.868 33.312H192.87ZM217.832 27.8L215.284 46H213.308L213.438 43.348C211.636 45.324 209.72 46.312 207.692 46.312C206.358 46.312 205.413 45.8007 204.858 44.778C204.304 43.738 204.2 41.9787 204.546 39.5C204.754 38.096 205.023 36.952 205.352 36.068C205.699 35.1667 206.141 34.4993 206.678 34.066C207.233 33.6327 207.796 33.3467 208.368 33.208C208.94 33.052 209.668 32.974 210.552 32.974C211.852 32.974 213.23 33.0867 214.686 33.312C214.686 32.7227 214.747 31.9167 214.868 30.894L215.31 27.8H217.832ZM213.412 41.372L214.27 35.106C213.49 35.0713 212.58 35.054 211.54 35.054C210.674 35.054 210.006 35.0973 209.538 35.184C209.088 35.2707 208.68 35.4873 208.316 35.834C207.97 36.1807 207.718 36.64 207.562 37.212C207.406 37.784 207.25 38.6073 207.094 39.682C206.852 41.4847 206.817 42.6807 206.99 43.27C207.164 43.842 207.64 44.128 208.42 44.128C209.2 44.128 209.963 43.92 210.708 43.504C211.454 43.0707 212.355 42.36 213.412 41.372ZM225.612 41.268L222.206 39.708C221.253 39.2573 220.577 38.7547 220.178 38.2C219.779 37.628 219.641 36.9 219.762 36.016C219.901 34.8547 220.395 34.0487 221.244 33.598C222.093 33.1473 223.385 32.9393 225.118 32.974C227.077 33.0087 228.888 33.156 230.552 33.416L230.24 35.21C228.039 35.1407 226.357 35.0973 225.196 35.08C224.052 35.08 223.281 35.1407 222.882 35.262C222.501 35.3833 222.275 35.6953 222.206 36.198C222.154 36.6313 222.232 36.952 222.44 37.16C222.665 37.368 223.09 37.6107 223.714 37.888L227.146 39.448C228.186 39.9333 228.897 40.436 229.278 40.956C229.659 41.4587 229.789 42.178 229.668 43.114C229.599 43.686 229.451 44.1713 229.226 44.57C229.001 44.9513 228.732 45.2547 228.42 45.48C228.125 45.7053 227.709 45.8787 227.172 46C226.652 46.1213 226.132 46.1993 225.612 46.234C225.109 46.2687 224.459 46.286 223.662 46.286C222.83 46.286 222.171 46.2687 221.686 46.234C221.218 46.2167 220.689 46.1647 220.1 46.078C219.528 46.0087 219.077 45.9567 218.748 45.922L219.034 44.05C220.005 44.1367 221.331 44.18 223.012 44.18C224.607 44.18 225.681 44.0933 226.236 43.92C226.791 43.7467 227.111 43.4 227.198 42.88C227.215 42.7933 227.224 42.7067 227.224 42.62C227.224 42.5333 227.215 42.464 227.198 42.412C227.198 42.3427 227.172 42.282 227.12 42.23C227.085 42.1607 227.051 42.1087 227.016 42.074C226.999 42.022 226.955 41.97 226.886 41.918C226.817 41.866 226.756 41.8227 226.704 41.788C226.652 41.7533 226.574 41.71 226.47 41.658C226.366 41.606 226.279 41.5713 226.21 41.554C226.158 41.5193 226.063 41.476 225.924 41.424C225.803 41.3547 225.699 41.3027 225.612 41.268ZM242.07 44.024H242.434C242.937 44.024 243.361 43.6947 243.708 43.036C244.107 42.2907 244.531 41.138 244.982 39.578C245.381 38.122 245.753 36.2413 246.1 33.936C246.152 33.52 246.386 33.312 246.802 33.312H249.558C249.922 33.312 250.13 33.5027 250.182 33.884L251.352 44.024H251.664C252.028 44.024 252.383 43.7467 252.73 43.192C253.423 42.1173 254.004 40.9127 254.472 39.578C255.131 37.7753 255.633 35.6867 255.98 33.312H258.606C258.051 35.9467 257.315 38.3733 256.396 40.592C255.599 42.464 254.879 43.8073 254.238 44.622C253.545 45.5407 252.747 46 251.846 46H250.182C249.974 46 249.801 45.9393 249.662 45.818C249.523 45.6793 249.437 45.5147 249.402 45.324L248.31 34.95H247.972C247.833 36.51 247.513 38.2607 247.01 40.202C246.542 41.762 246.013 43.0793 245.424 44.154C244.748 45.3847 243.717 46 242.33 46H240.9C240.449 46 240.181 45.7747 240.094 45.324L237.754 33.312H240.38L242.07 44.024ZM264.857 27.8L264.207 32.792C264.034 33.9533 263.826 34.9933 263.583 35.912C265.802 33.9533 267.76 32.974 269.459 32.974C270.534 32.974 271.348 33.286 271.903 33.91C272.458 34.5167 272.648 35.392 272.475 36.536L271.123 46H268.627L269.849 37.16C269.953 36.3627 269.918 35.8253 269.745 35.548C269.589 35.2533 269.234 35.106 268.679 35.106C267.968 35.106 267.223 35.3227 266.443 35.756C265.68 36.1893 264.675 36.9 263.427 37.888L262.309 46H259.787L262.361 27.8H264.857ZM285.555 43.894L285.711 45.584C284.48 46.0693 282.738 46.312 280.485 46.312C278.318 46.312 276.819 45.7487 275.987 44.622C275.155 43.478 274.895 41.71 275.207 39.318C275.536 36.874 276.204 35.21 277.209 34.326C278.232 33.4247 279.904 32.974 282.227 32.974C284.203 32.974 285.546 33.3207 286.257 34.014C286.968 34.7073 287.228 35.73 287.037 37.082C286.829 38.3127 286.344 39.2053 285.581 39.76C284.818 40.2973 283.648 40.6267 282.071 40.748L277.677 41.138C277.66 42.334 277.911 43.1487 278.431 43.582C278.951 43.998 279.766 44.206 280.875 44.206C282.054 44.206 283.614 44.102 285.555 43.894ZM277.833 39.266L282.071 38.876C282.868 38.824 283.449 38.6593 283.813 38.382C284.177 38.0873 284.411 37.5847 284.515 36.874C284.619 36.0593 284.48 35.5567 284.099 35.366C283.735 35.1753 282.981 35.08 281.837 35.08C280.52 35.08 279.584 35.3573 279.029 35.912C278.492 36.4493 278.093 37.5673 277.833 39.266ZM292.681 33.312L292.551 36.042C294.839 33.9967 296.841 32.974 298.557 32.974C299.631 32.974 300.446 33.286 301.001 33.91C301.555 34.5167 301.746 35.392 301.573 36.536L300.221 46H297.725L298.947 37.16C299.051 36.3627 299.016 35.8253 298.843 35.548C298.687 35.2533 298.331 35.106 297.777 35.106C297.066 35.106 296.321 35.3227 295.541 35.756C294.778 36.1893 293.773 36.9 292.525 37.888L291.407 46H288.885L290.679 33.312H292.681ZM323.864 30.374H318.17L315.96 46H313.36L315.57 30.374H309.902L310.24 28.06H324.176L323.864 30.374ZM327.326 27.904H328.522C328.765 27.904 328.947 27.9733 329.068 28.112C329.189 28.2507 329.233 28.4413 329.198 28.684L329.016 30.14C328.947 30.608 328.687 30.842 328.236 30.842H327.04C326.52 30.842 326.286 30.5733 326.338 30.036L326.572 28.58C326.607 28.1293 326.858 27.904 327.326 27.904ZM326.702 46H324.206L325.974 33.312H328.47L326.702 46ZM341.288 43.894L341.444 45.584C340.213 46.0693 338.471 46.312 336.218 46.312C334.051 46.312 332.552 45.7487 331.72 44.622C330.888 43.478 330.628 41.71 330.94 39.318C331.269 36.874 331.936 35.21 332.942 34.326C333.964 33.4247 335.637 32.974 337.96 32.974C339.936 32.974 341.279 33.3207 341.99 34.014C342.7 34.7073 342.96 35.73 342.77 37.082C342.562 38.3127 342.076 39.2053 341.314 39.76C340.551 40.2973 339.381 40.6267 337.804 40.748L333.41 41.138C333.392 42.334 333.644 43.1487 334.164 43.582C334.684 43.998 335.498 44.206 336.608 44.206C337.786 44.206 339.346 44.102 341.288 43.894ZM333.566 39.266L337.804 38.876C338.601 38.824 339.182 38.6593 339.546 38.382C339.91 38.0873 340.144 37.5847 340.248 36.874C340.352 36.0593 340.213 35.5567 339.832 35.366C339.468 35.1753 338.714 35.08 337.57 35.08C336.252 35.08 335.316 35.3573 334.762 35.912C334.224 36.4493 333.826 37.5673 333.566 39.266ZM354.601 32.974L353.977 35.34H353.275C352.616 35.34 351.94 35.5393 351.247 35.938C350.554 36.3193 349.557 36.978 348.257 37.914L347.139 46H344.617L346.411 33.312H348.335L348.205 36.224C350.32 34.0573 352.226 32.974 353.925 32.974H354.601ZM362.493 30.218L362.467 28.19C364.391 27.878 366.081 27.722 367.537 27.722C369.513 27.722 370.891 28.0773 371.671 28.788C372.468 29.4813 372.797 30.5473 372.659 31.986C372.589 32.6793 372.442 33.338 372.217 33.962C372.009 34.586 371.662 35.158 371.177 35.678C370.709 36.1807 370.145 36.4667 369.487 36.536L369.435 36.64C371.515 36.9867 372.355 38.4773 371.957 41.112C371.437 44.44 369.14 46.182 365.067 46.338C363.559 46.39 361.799 46.234 359.789 45.87L360.127 43.842C360.369 43.8593 360.933 43.9027 361.817 43.972C362.718 44.024 363.238 44.05 363.377 44.05C363.533 44.05 364.044 44.0413 364.911 44.024C367.528 43.8333 369.019 42.698 369.383 40.618C369.539 39.682 369.4 38.954 368.967 38.434C368.551 37.8967 367.727 37.6193 366.497 37.602L363.143 37.524L363.403 35.574H366.653C367.883 35.5567 368.75 35.2707 369.253 34.716C369.755 34.144 370.059 33.3727 370.163 32.402C370.267 31.4313 370.119 30.79 369.721 30.478C369.322 30.166 368.395 30.01 366.939 30.01C365.708 30.01 364.226 30.0793 362.493 30.218ZM391.079 43.894L391.235 45.584C390.004 46.0693 388.262 46.312 386.009 46.312C383.842 46.312 382.343 45.7487 381.511 44.622C380.679 43.478 380.419 41.71 380.731 39.318C381.06 36.874 381.727 35.21 382.733 34.326C383.755 33.4247 385.428 32.974 387.751 32.974C389.727 32.974 391.07 33.3207 391.781 34.014C392.491 34.7073 392.751 35.73 392.561 37.082C392.353 38.3127 391.867 39.2053 391.105 39.76C390.342 40.2973 389.172 40.6267 387.595 40.748L383.201 41.138C383.183 42.334 383.435 43.1487 383.955 43.582C384.475 43.998 385.289 44.206 386.399 44.206C387.577 44.206 389.137 44.102 391.079 43.894ZM383.357 39.266L387.595 38.876C388.392 38.824 388.973 38.6593 389.337 38.382C389.701 38.0873 389.935 37.5847 390.039 36.874C390.143 36.0593 390.004 35.5567 389.623 35.366C389.259 35.1753 388.505 35.08 387.361 35.08C386.043 35.08 385.107 35.3573 384.553 35.912C384.015 36.4493 383.617 37.5673 383.357 39.266ZM398.204 33.312L398.074 36.042C400.362 33.9967 402.364 32.974 404.08 32.974C405.155 32.974 405.97 33.286 406.524 33.91C407.079 34.5167 407.27 35.392 407.096 36.536L405.744 46H403.248L404.47 37.16C404.574 36.3627 404.54 35.8253 404.366 35.548C404.21 35.2533 403.855 35.106 403.3 35.106C402.59 35.106 401.844 35.3227 401.064 35.756C400.302 36.1893 399.296 36.9 398.048 37.888L396.93 46H394.408L396.202 33.312H398.204ZM414.508 35.262L413.494 42.386C413.408 42.9927 413.46 43.4087 413.65 43.634C413.858 43.842 414.266 43.946 414.872 43.946H416.77L416.874 45.896C416.112 46.1213 415.124 46.234 413.91 46.234C412.784 46.234 411.969 45.922 411.466 45.298C410.981 44.674 410.816 43.7813 410.972 42.62L412.012 35.262H409.698L409.932 33.442L412.298 33.312L412.844 29.594H415.314L414.794 33.312H418.694L418.434 35.262H414.508ZM430.18 43.894L430.336 45.584C429.105 46.0693 427.363 46.312 425.11 46.312C422.943 46.312 421.444 45.7487 420.612 44.622C419.78 43.478 419.52 41.71 419.832 39.318C420.161 36.874 420.829 35.21 421.834 34.326C422.857 33.4247 424.529 32.974 426.852 32.974C428.828 32.974 430.171 33.3207 430.882 34.014C431.593 34.7073 431.853 35.73 431.662 37.082C431.454 38.3127 430.969 39.2053 430.206 39.76C429.443 40.2973 428.273 40.6267 426.696 40.748L422.302 41.138C422.285 42.334 422.536 43.1487 423.056 43.582C423.576 43.998 424.391 44.206 425.5 44.206C426.679 44.206 428.239 44.102 430.18 43.894ZM422.458 39.266L426.696 38.876C427.493 38.824 428.074 38.6593 428.438 38.382C428.802 38.0873 429.036 37.5847 429.14 36.874C429.244 36.0593 429.105 35.5567 428.724 35.366C428.36 35.1753 427.606 35.08 426.462 35.08C425.145 35.08 424.209 35.3573 423.654 35.912C423.117 36.4493 422.718 37.5673 422.458 39.266ZM443.494 32.974L442.87 35.34H442.168C441.509 35.34 440.833 35.5393 440.14 35.938C439.446 36.3193 438.45 36.978 437.15 37.914L436.032 46H433.51L435.304 33.312H437.228L437.098 36.224C439.212 34.0573 441.119 32.974 442.818 32.974H443.494ZM450.471 41.268L447.065 39.708C446.112 39.2573 445.436 38.7547 445.037 38.2C444.639 37.628 444.5 36.9 444.621 36.016C444.76 34.8547 445.254 34.0487 446.103 33.598C446.953 33.1473 448.244 32.9393 449.977 32.974C451.936 33.0087 453.747 33.156 455.411 33.416L455.099 35.21C452.898 35.1407 451.217 35.0973 450.055 35.08C448.911 35.08 448.14 35.1407 447.741 35.262C447.36 35.3833 447.135 35.6953 447.065 36.198C447.013 36.6313 447.091 36.952 447.299 37.16C447.525 37.368 447.949 37.6107 448.573 37.888L452.005 39.448C453.045 39.9333 453.756 40.436 454.137 40.956C454.519 41.4587 454.649 42.178 454.527 43.114C454.458 43.686 454.311 44.1713 454.085 44.57C453.86 44.9513 453.591 45.2547 453.279 45.48C452.985 45.7053 452.569 45.8787 452.031 46C451.511 46.1213 450.991 46.1993 450.471 46.234C449.969 46.2687 449.319 46.286 448.521 46.286C447.689 46.286 447.031 46.2687 446.545 46.234C446.077 46.2167 445.549 46.1647 444.959 46.078C444.387 46.0087 443.937 45.9567 443.607 45.922L443.893 44.05C444.864 44.1367 446.19 44.18 447.871 44.18C449.466 44.18 450.541 44.0933 451.095 43.92C451.65 43.7467 451.971 43.4 452.057 42.88C452.075 42.7933 452.083 42.7067 452.083 42.62C452.083 42.5333 452.075 42.464 452.057 42.412C452.057 42.3427 452.031 42.282 451.979 42.23C451.945 42.1607 451.91 42.1087 451.875 42.074C451.858 42.022 451.815 41.97 451.745 41.918C451.676 41.866 451.615 41.8227 451.563 41.788C451.511 41.7533 451.433 41.71 451.329 41.658C451.225 41.606 451.139 41.5713 451.069 41.554C451.017 41.5193 450.922 41.476 450.783 41.424C450.662 41.3547 450.558 41.3027 450.471 41.268ZM467.448 35.262L466.434 42.386C466.347 42.9927 466.399 43.4087 466.59 43.634C466.798 43.842 467.205 43.946 467.812 43.946H469.71L469.814 45.896C469.051 46.1213 468.063 46.234 466.85 46.234C465.723 46.234 464.908 45.922 464.406 45.298C463.92 44.674 463.756 43.7813 463.912 42.62L464.952 35.262H462.638L462.872 33.442L465.238 33.312L465.784 29.594H468.254L467.734 33.312H471.634L471.374 35.262H467.448ZM477.504 27.8L476.854 32.792C476.68 33.9533 476.472 34.9933 476.23 35.912C478.448 33.9533 480.407 32.974 482.106 32.974C483.18 32.974 483.995 33.286 484.55 33.91C485.104 34.5167 485.295 35.392 485.122 36.536L483.77 46H481.274L482.496 37.16C482.6 36.3627 482.565 35.8253 482.392 35.548C482.236 35.2533 481.88 35.106 481.326 35.106C480.615 35.106 479.87 35.3227 479.09 35.756C478.327 36.1893 477.322 36.9 476.074 37.888L474.956 46H472.434L475.008 27.8H477.504ZM498.202 43.894L498.358 45.584C497.127 46.0693 495.385 46.312 493.132 46.312C490.965 46.312 489.466 45.7487 488.634 44.622C487.802 43.478 487.542 41.71 487.854 39.318C488.183 36.874 488.85 35.21 489.856 34.326C490.878 33.4247 492.551 32.974 494.874 32.974C496.85 32.974 498.193 33.3207 498.904 34.014C499.614 34.7073 499.874 35.73 499.684 37.082C499.476 38.3127 498.99 39.2053 498.228 39.76C497.465 40.2973 496.295 40.6267 494.718 40.748L490.324 41.138C490.306 42.334 490.558 43.1487 491.078 43.582C491.598 43.998 492.412 44.206 493.522 44.206C494.7 44.206 496.26 44.102 498.202 43.894ZM490.48 39.266L494.718 38.876C495.515 38.824 496.096 38.6593 496.46 38.382C496.824 38.0873 497.058 37.5847 497.162 36.874C497.266 36.0593 497.127 35.5567 496.746 35.366C496.382 35.1753 495.628 35.08 494.484 35.08C493.166 35.08 492.23 35.3573 491.676 35.912C491.138 36.4493 490.74 37.5673 490.48 39.266ZM513.821 41.268L510.415 39.708C509.462 39.2573 508.786 38.7547 508.387 38.2C507.988 37.628 507.85 36.9 507.971 36.016C508.11 34.8547 508.604 34.0487 509.453 33.598C510.302 33.1473 511.594 32.9393 513.327 32.974C515.286 33.0087 517.097 33.156 518.761 33.416L518.449 35.21C516.248 35.1407 514.566 35.0973 513.405 35.08C512.261 35.08 511.49 35.1407 511.091 35.262C510.71 35.3833 510.484 35.6953 510.415 36.198C510.363 36.6313 510.441 36.952 510.649 37.16C510.874 37.368 511.299 37.6107 511.923 37.888L515.355 39.448C516.395 39.9333 517.106 40.436 517.487 40.956C517.868 41.4587 517.998 42.178 517.877 43.114C517.808 43.686 517.66 44.1713 517.435 44.57C517.21 44.9513 516.941 45.2547 516.629 45.48C516.334 45.7053 515.918 45.8787 515.381 46C514.861 46.1213 514.341 46.1993 513.821 46.234C513.318 46.2687 512.668 46.286 511.871 46.286C511.039 46.286 510.38 46.2687 509.895 46.234C509.427 46.2167 508.898 46.1647 508.309 46.078C507.737 46.0087 507.286 45.9567 506.957 45.922L507.243 44.05C508.214 44.1367 509.54 44.18 511.221 44.18C512.816 44.18 513.89 44.0933 514.445 43.92C515 43.7467 515.32 43.4 515.407 42.88C515.424 42.7933 515.433 42.7067 515.433 42.62C515.433 42.5333 515.424 42.464 515.407 42.412C515.407 42.3427 515.381 42.282 515.329 42.23C515.294 42.1607 515.26 42.1087 515.225 42.074C515.208 42.022 515.164 41.97 515.095 41.918C515.026 41.866 514.965 41.8227 514.913 41.788C514.861 41.7533 514.783 41.71 514.679 41.658C514.575 41.606 514.488 41.5713 514.419 41.554C514.367 41.5193 514.272 41.476 514.133 41.424C514.012 41.3547 513.908 41.3027 513.821 41.268ZM525.516 35.262L524.502 42.386C524.415 42.9927 524.467 43.4087 524.658 43.634C524.866 43.842 525.273 43.946 525.88 43.946H527.778L527.882 45.896C527.119 46.1213 526.131 46.234 524.918 46.234C523.791 46.234 522.977 45.922 522.474 45.298C521.989 44.674 521.824 43.7813 521.98 42.62L523.02 35.262H520.706L520.94 33.442L523.306 33.312L523.852 29.594H526.322L525.802 33.312H529.702L529.442 35.262H525.516ZM541.63 46H539.654L539.758 43.66C538.233 45.428 536.413 46.312 534.298 46.312C532.755 46.312 531.715 45.8093 531.178 44.804C530.641 43.7987 530.545 42.0307 530.892 39.5C531.083 38.096 531.351 36.952 531.698 36.068C532.045 35.1667 532.504 34.4993 533.076 34.066C533.648 33.6327 534.237 33.3467 534.844 33.208C535.451 33.052 536.231 32.974 537.184 32.974C539.247 32.974 541.318 33.1993 543.398 33.65L541.63 46ZM539.732 41.424L540.642 35.132C539.047 35.0973 538.155 35.08 537.964 35.08C537.063 35.08 536.378 35.1233 535.91 35.21C535.442 35.2967 535.026 35.522 534.662 35.886C534.315 36.2327 534.055 36.6833 533.882 37.238C533.726 37.7927 533.57 38.6073 533.414 39.682C533.171 41.5713 533.137 42.7847 533.31 43.322C533.501 43.8593 534.003 44.128 534.818 44.128C535.615 44.128 536.395 43.9113 537.158 43.478C537.921 43.0273 538.779 42.3427 539.732 41.424ZM558.38 33.65L556.664 45.688C556.213 49.4667 553.708 51.382 549.15 51.434C547.382 51.434 545.978 51.2693 544.938 50.94L545.198 49.276C546.567 49.3107 547.91 49.3193 549.228 49.302C552.088 49.2673 553.717 48.236 554.116 46.208C554.41 44.7347 554.774 43.6773 555.208 43.036C554.497 44.0067 553.613 44.7953 552.556 45.402C551.516 46.0087 550.38 46.312 549.15 46.312C547.728 46.312 546.732 45.8093 546.16 44.804C545.588 43.7987 545.484 42.0307 545.848 39.5C546.056 38.0787 546.333 36.926 546.68 36.042C547.026 35.1407 547.477 34.4733 548.032 34.04C548.586 33.6067 549.141 33.3207 549.696 33.182C550.268 33.0433 550.996 32.974 551.88 32.974C554.098 32.974 556.248 33.1993 558.328 33.65H558.38ZM554.714 41.424L555.624 35.132C554.029 35.0973 553.11 35.08 552.868 35.08C551.221 35.08 550.129 35.3487 549.592 35.886C549.072 36.406 548.673 37.6713 548.396 39.682C548.153 41.5367 548.118 42.7413 548.292 43.296C548.482 43.8507 548.976 44.128 549.774 44.128C550.588 44.128 551.377 43.9113 552.14 43.478C552.902 43.0447 553.76 42.36 554.714 41.424ZM571.098 43.894L571.254 45.584C570.023 46.0693 568.281 46.312 566.028 46.312C563.861 46.312 562.362 45.7487 561.53 44.622C560.698 43.478 560.438 41.71 560.75 39.318C561.079 36.874 561.747 35.21 562.752 34.326C563.775 33.4247 565.447 32.974 567.77 32.974C569.746 32.974 571.089 33.3207 571.8 34.014C572.511 34.7073 572.771 35.73 572.58 37.082C572.372 38.3127 571.887 39.2053 571.124 39.76C570.361 40.2973 569.191 40.6267 567.614 40.748L563.22 41.138C563.203 42.334 563.454 43.1487 563.974 43.582C564.494 43.998 565.309 44.206 566.418 44.206C567.597 44.206 569.157 44.102 571.098 43.894ZM563.376 39.266L567.614 38.876C568.411 38.824 568.992 38.6593 569.356 38.382C569.72 38.0873 569.954 37.5847 570.058 36.874C570.162 36.0593 570.023 35.5567 569.642 35.366C569.278 35.1753 568.524 35.08 567.38 35.08C566.063 35.08 565.127 35.3573 564.572 35.912C564.035 36.4493 563.636 37.5673 563.376 39.266ZM575.494 42.776H576.326C576.967 42.776 577.253 43.0967 577.184 43.738L577.002 45.116C576.932 45.7053 576.603 46 576.014 46H575.182C574.506 46 574.22 45.6793 574.324 45.038L574.532 43.634C574.601 43.062 574.922 42.776 575.494 42.776Z" fill="#999999"/>
<path d="M71.724 74.098H63.742L63.924 72.798H71.906L71.724 74.098ZM81.1248 80L83.6468 62.06C85.7615 61.904 87.7288 61.826 89.5488 61.826C92.1835 61.826 93.9428 62.5193 94.8268 63.906C95.7282 65.2753 95.9362 67.676 95.4508 71.108C95.1908 72.98 94.8528 74.5053 94.4368 75.684C94.0382 76.8453 93.4922 77.7727 92.7988 78.466C92.1055 79.142 91.3168 79.61 90.4328 79.87C89.5662 80.1127 88.4568 80.234 87.1048 80.234C85.3368 80.234 83.3435 80.156 81.1248 80ZM85.1808 63.386L83.0228 78.674C84.7562 78.7087 86.1082 78.726 87.0788 78.726C88.5175 78.726 89.6442 78.5093 90.4588 78.076C91.2908 77.6427 91.9582 76.88 92.4608 75.788C92.9808 74.6787 93.3882 73.0667 93.6828 70.952C94.1162 67.9707 94.0382 65.9513 93.4488 64.894C92.8595 63.8367 91.5508 63.308 89.5228 63.308C89.3322 63.308 87.8848 63.334 85.1808 63.386ZM101.096 62.112H101.85C102.232 62.112 102.396 62.3027 102.344 62.684L102.136 64.218C102.084 64.5473 101.894 64.712 101.564 64.712H100.81C100.412 64.712 100.238 64.5213 100.29 64.14L100.524 62.606C100.542 62.2767 100.732 62.112 101.096 62.112ZM99.8223 80H98.1843L99.9523 67.416H101.59L99.8223 80ZM106.461 68.56C107.449 67.572 108.991 67.078 111.089 67.078C113.186 67.078 114.616 67.598 115.379 68.638C116.159 69.6607 116.375 71.3767 116.029 73.786C115.699 76.178 115.041 77.868 114.053 78.856C113.065 79.8267 111.531 80.312 109.451 80.312C107.336 80.312 105.897 79.8093 105.135 78.804C104.372 77.7813 104.155 76.0567 104.485 73.63C104.814 71.238 105.473 69.548 106.461 68.56ZM111.089 68.508C109.546 68.508 108.411 68.8893 107.683 69.652C106.972 70.3973 106.478 71.7753 106.201 73.786C105.923 75.7447 106.019 77.088 106.487 77.816C106.955 78.544 107.943 78.908 109.451 78.908C110.993 78.908 112.12 78.5267 112.831 77.764C113.559 77.0013 114.061 75.6233 114.339 73.63C114.616 71.6713 114.521 70.328 114.053 69.6C113.585 68.872 112.597 68.508 111.089 68.508ZM125.695 73.474L129.179 80H127.489L124.395 74.098H123.719L118.987 80H117.089L122.445 73.448L119.221 67.416H120.911L123.693 72.772H124.447L128.815 67.416H130.635L125.695 73.474ZM135.018 62.112H135.772C136.153 62.112 136.318 62.3027 136.266 62.684L136.058 64.218C136.006 64.5473 135.815 64.712 135.486 64.712H134.732C134.333 64.712 134.16 64.5213 134.212 64.14L134.446 62.606C134.463 62.2767 134.654 62.112 135.018 62.112ZM133.744 80H132.106L133.874 67.416H135.512L133.744 80ZM151.199 61.8L148.625 80H147.351L147.585 77.062C145.591 79.2287 143.546 80.312 141.449 80.312C140.079 80.312 139.161 79.792 138.693 78.752C138.242 77.6947 138.19 75.9787 138.537 73.604C138.727 72.2173 138.979 71.0993 139.291 70.25C139.603 69.4007 140.019 68.742 140.539 68.274C141.076 67.806 141.665 67.494 142.307 67.338C142.948 67.1647 143.771 67.078 144.777 67.078C145.99 67.078 147.351 67.182 148.859 67.39C148.911 66.4713 148.989 65.6653 149.093 64.972L149.535 61.8H151.199ZM147.611 75.71L148.573 68.56C146.77 68.4907 145.687 68.456 145.323 68.456C143.468 68.456 142.229 68.7767 141.605 69.418C140.981 70.0593 140.513 71.498 140.201 73.734C139.906 75.6233 139.871 76.9493 140.097 77.712C140.322 78.4747 140.911 78.856 141.865 78.856C143.546 78.856 145.461 77.8073 147.611 75.71ZM163.089 78.57L163.219 79.688C162.023 80.104 160.333 80.312 158.149 80.312C156.035 80.312 154.596 79.7833 153.833 78.726C153.088 77.6513 152.889 75.9007 153.235 73.474C153.582 70.978 154.249 69.288 155.237 68.404C156.225 67.52 157.811 67.078 159.995 67.078C161.815 67.078 163.089 67.3987 163.817 68.04C164.563 68.664 164.797 69.6693 164.519 71.056C164.294 72.1827 163.835 72.9887 163.141 73.474C162.465 73.9593 161.399 74.2713 159.943 74.41L154.769 74.904C154.665 76.464 154.899 77.5213 155.471 78.076C156.043 78.6307 157.04 78.908 158.461 78.908C159.709 78.908 161.252 78.7953 163.089 78.57ZM154.925 73.63L159.943 73.136C160.897 73.032 161.581 72.8327 161.997 72.538C162.413 72.226 162.699 71.6887 162.855 70.926C163.081 69.9033 162.951 69.2447 162.465 68.95C161.98 68.638 161.113 68.482 159.865 68.482C159.033 68.482 158.366 68.5427 157.863 68.664C157.361 68.7853 156.901 69.028 156.485 69.392C156.087 69.756 155.766 70.2673 155.523 70.926C155.298 71.5673 155.099 72.434 154.925 73.526V73.63Z" fill="#9F9F9F"/>
<defs>
<clipPath id="clip0">
<rect width="69" height="64" fill="white" transform="translate(568 24)"/>
</clipPath>
<clipPath id="clip1">
<rect width="69" height="64" fill="white"/>
</clipPath>
</defs>
</svg>
