<svg width="104" height="32" viewBox="0 0 104 32" fill="none" xmlns="http://www.w3.org/2000/svg">
<path d="M20.0021 1.326V7.201H14.1741V31.5H5.94911V7.201H0.168105V1.326H20.0021ZM21.9592 5.697V0.0569986H30.2312V5.697H21.9592ZM30.0902 31.5H22.1002V8.047H30.0902V31.5ZM40.2892 8.047H46.0232C50.6292 8.047 52.9322 9.98967 52.9322 13.875V21.865H40.9472V24.967C40.9472 25.6563 41.3389 26.001 42.1222 26.001H44.1902C44.9735 26.001 45.3652 25.625 45.3652 24.873V23.557H52.9322V25.672C52.9322 29.5573 50.6292 31.5 46.0232 31.5H40.2892C35.6832 31.5 33.3802 29.5573 33.3802 25.672V13.875C33.3802 9.98967 35.6832 8.047 40.2892 8.047ZM40.9472 17.541H45.3652V14.58C45.3652 13.8907 44.9735 13.546 44.1902 13.546H42.1222C41.3389 13.546 40.9472 13.8907 40.9472 14.58V17.541ZM68.8983 7.812H69.6033V14.768H66.9243C64.9503 14.768 63.9633 15.8333 63.9633 17.964V31.5H55.9733V8.047H63.8223V11.666C64.0729 10.4753 64.6369 9.53533 65.5143 8.846C66.3916 8.15667 67.5196 7.812 68.8983 7.812ZM103.075 20.126V26.095H99.8786V31.5H92.1706V26.095H79.7156V18.81L91.0426 1.326H99.3146L87.1886 20.126H92.1706V14.157H99.8786V20.126H103.075Z" fill="#DEA73C"/>
</svg>
