<svg width="100" height="32" viewBox="0 0 100 32" fill="none" xmlns="http://www.w3.org/2000/svg">
<path d="M19.8971 1.326V7.201H14.0691V31.5H5.84413V7.201H0.063125V1.326H19.8971ZM21.8542 5.697V0.0569986H30.1262V5.697H21.8542ZM29.9852 31.5H21.9952V8.047H29.9852V31.5ZM40.1842 8.047H45.9182C50.5242 8.047 52.8272 9.98967 52.8272 13.875V21.865H40.8422V24.967C40.8422 25.6563 41.2339 26.001 42.0172 26.001H44.0852C44.8686 26.001 45.2602 25.625 45.2602 24.873V23.557H52.8272V25.672C52.8272 29.5573 50.5242 31.5 45.9182 31.5H40.1842C35.5782 31.5 33.2752 29.5573 33.2752 25.672V13.875C33.2752 9.98967 35.5782 8.047 40.1842 8.047ZM40.8422 17.541H45.2602V14.58C45.2602 13.8907 44.8686 13.546 44.0852 13.546H42.0172C41.2339 13.546 40.8422 13.8907 40.8422 14.58V17.541ZM68.7933 7.812H69.4983V14.768H66.8193C64.8453 14.768 63.8583 15.8333 63.8583 17.964V31.5H55.8683V8.047H63.7173V11.666C63.9679 10.4753 64.5319 9.53533 65.4093 8.846C66.2866 8.15667 67.4146 7.812 68.7933 7.812ZM88.4466 8.235V11.666H80.2216V7.154C80.2216 3.26867 82.5246 1.326 87.1306 1.326H92.8176C97.4863 1.326 99.8206 3.26867 99.8206 7.154V11.478C99.8206 13.0447 99.5543 14.392 99.0216 15.52C98.5203 16.6167 97.69 17.8073 96.5306 19.092L90.7026 25.625H99.8206V31.5H80.4566V26.142L89.3866 16.554C90.3266 15.5827 90.9533 14.7523 91.2666 14.063C91.58 13.3423 91.7366 12.465 91.7366 11.431V8.235C91.7366 7.54567 91.345 7.201 90.5616 7.201H89.6216C88.8383 7.201 88.4466 7.54567 88.4466 8.235Z" fill="#DEA73C"/>
</svg>
