<svg width="101" height="32" viewBox="0 0 101 32" fill="none" xmlns="http://www.w3.org/2000/svg">
<path d="M20.2166 1.326V7.201H14.3886V31.5H6.16364V7.201H0.382644V1.326H20.2166ZM22.1738 5.697V0.0569986H30.4458V5.697H22.1738ZM30.3048 31.5H22.3148V8.047H30.3048V31.5ZM40.5038 8.047H46.2378C50.8438 8.047 53.1468 9.98967 53.1468 13.875V21.865H41.1618V24.967C41.1618 25.6563 41.5534 26.001 42.3368 26.001H44.4048C45.1881 26.001 45.5798 25.625 45.5798 24.873V23.557H53.1468V25.672C53.1468 29.5573 50.8438 31.5 46.2378 31.5H40.5038C35.8978 31.5 33.5948 29.5573 33.5948 25.672V13.875C33.5948 9.98967 35.8978 8.047 40.5038 8.047ZM41.1618 17.541H45.5798V14.58C45.5798 13.8907 45.1881 13.546 44.4048 13.546H42.3368C41.5534 13.546 41.1618 13.8907 41.1618 14.58V17.541ZM69.1128 7.812H69.8178V14.768H67.1388C65.1648 14.768 64.1778 15.8333 64.1778 17.964V31.5H56.1878V8.047H64.0368V11.666C64.2875 10.4753 64.8515 9.53533 65.7288 8.846C66.6061 8.15667 67.7341 7.812 69.1128 7.812ZM88.8601 8.235V11.196H80.6351V7.154C80.6351 3.26867 82.9381 1.326 87.5441 1.326H93.3251C97.9311 1.326 100.234 3.26867 100.234 7.154V10.82C100.234 13.546 99.4821 15.3163 97.9781 16.131C98.8555 16.507 99.4508 17.0867 99.7641 17.87C100.077 18.622 100.234 19.656 100.234 20.972V25.672C100.234 29.5573 97.9311 31.5 93.3251 31.5H87.5441C82.9381 31.5 80.6351 29.5573 80.6351 25.672V21.63H88.8601V24.591C88.8601 25.2803 89.2518 25.625 90.0351 25.625H90.9751C91.7585 25.625 92.1501 25.2803 92.1501 24.591V19.938C92.1501 19.2487 91.7585 18.904 90.9751 18.904H87.1681V13.499H90.9751C91.7585 13.499 92.1501 13.1543 92.1501 12.465V8.235C92.1501 7.54567 91.7585 7.201 90.9751 7.201H90.0351C89.2518 7.201 88.8601 7.54567 88.8601 8.235Z" fill="#DEA73C"/>
</svg>
