<svg width="93" height="32" viewBox="0 0 93 32" fill="none" xmlns="http://www.w3.org/2000/svg">
<path d="M20.3166 1.326V7.201H14.4886V31.5H6.26356V7.201H0.482559V1.326H20.3166ZM22.2737 5.697V0.0569986H30.5457V5.697H22.2737ZM30.4047 31.5H22.4147V8.047H30.4047V31.5ZM40.6037 8.047H46.3377C50.9437 8.047 53.2467 9.98967 53.2467 13.875V21.865H41.2617V24.967C41.2617 25.6563 41.6533 26.001 42.4367 26.001H44.5047C45.288 26.001 45.6797 25.625 45.6797 24.873V23.557H53.2467V25.672C53.2467 29.5573 50.9437 31.5 46.3377 31.5H40.6037C35.9977 31.5 33.6947 29.5573 33.6947 25.672V13.875C33.6947 9.98967 35.9977 8.047 40.6037 8.047ZM41.2617 17.541H45.6797V14.58C45.6797 13.8907 45.288 13.546 44.5047 13.546H42.4367C41.6533 13.546 41.2617 13.8907 41.2617 14.58V17.541ZM69.2127 7.812H69.9177V14.768H67.2387C65.2647 14.768 64.2777 15.8333 64.2777 17.964V31.5H56.2877V8.047H64.1367V11.666C64.3874 10.4753 64.9514 9.53533 65.8287 8.846C66.706 8.15667 67.834 7.812 69.2127 7.812ZM92.8611 1.326V31.5H84.6361V7.201H80.4061V1.326H92.8611Z" fill="#DEA73C"/>
</svg>
