<svg width="404" height="226" viewBox="0 0 404 226" fill="none" xmlns="http://www.w3.org/2000/svg">
  <g style="mix-blend-mode:hard-light">
    <g opacity="0.9" filter="url(#filter0_d)">
      <path d="M17.1672 138.976H41.6575V154H0V63H40.6971V78.0236H17.1672V100.201H37.2157V115.225H17.1672V138.976Z" fill="url(#paint0_radial)"/>
      <path d="M67.67 129.57V117.229C67.67 116.299 67.49 115.655 67.1298 115.298C66.7697 114.868 66.1394 114.654 65.239 114.654H57.3157C50.2327 114.654 46.6912 110.648 46.6912 102.635V87.0748C46.6912 79.2053 50.4728 75.2705 58.036 75.2705H69.0206C76.5838 75.2705 80.3654 79.2053 80.3654 87.0748V95.9816H67.49V89.221C67.49 87.4325 66.6796 86.5382 65.0589 86.5382H61.9977C60.377 86.5382 59.5666 87.4325 59.5666 89.221V101.24C59.5666 102.17 59.7467 102.85 60.1068 103.279C60.467 103.637 61.0973 103.815 61.9977 103.815H69.7409C73.5825 103.815 76.3437 104.817 78.0244 106.82C79.7051 108.752 80.5454 111.649 80.5454 115.512V131.609C80.5454 139.55 76.7639 143.521 69.2007 143.521H58.3061C50.6829 143.521 46.8713 139.55 46.8713 131.609V122.809H59.7467V129.57C59.7467 131.359 60.557 132.253 62.1777 132.253H65.239C66.8597 132.253 67.67 131.359 67.67 129.57Z" fill="url(#paint1_radial)"/>
      <path d="M121.457 99.201H108.492V88.4698C108.492 86.6813 107.711 85.7871 106.151 85.7871H102.459C100.838 85.7871 100.028 86.6813 100.028 88.4698V130.321C100.028 131.323 100.208 132.038 100.568 132.467C100.928 132.825 101.559 133.004 102.459 133.004H106.151C106.991 133.004 107.591 132.825 107.951 132.467C108.312 132.038 108.492 131.323 108.492 130.321V119.912H121.457V131.716C121.457 139.586 117.646 143.521 110.022 143.521H98.4975C90.9343 143.521 87.1527 139.586 87.1527 131.716V87.0748C87.1527 79.2053 90.9343 75.2705 98.4975 75.2705H110.022C117.646 75.2705 121.457 79.2053 121.457 87.0748V99.201Z" fill="url(#paint2_radial)"/>
      <path d="M154.248 143.521L152.268 131.18H139.212L137.231 143.521H124.536L137.501 75.2705H153.888L167.214 143.521H154.248ZM141.013 120.019H150.377L145.695 91.1526L141.013 120.019Z" fill="url(#paint3_radial)"/>
      <path d="M184.447 132.253H200.924V143.521H171.662V75.2705H184.447V132.253Z" fill="url(#paint4_radial)"/>
      <path d="M231.185 143.521L229.204 131.18H216.149L214.168 143.521H201.473L214.438 75.2705H230.825L244.151 143.521H231.185ZM217.95 120.019H227.314L222.632 91.1526L217.95 120.019Z" fill="url(#paint5_radial)"/>
      <path d="M278.851 75.2705V86.5382H268.317V143.521H255.441V86.5382H244.997V75.2705H278.851Z" fill="url(#paint6_radial)"/>
      <path d="M283.6 75.2705H296.385V143.521H283.6V75.2705Z" fill="url(#paint7_radial)"/>
      <path d="M315.859 75.2705H327.924C335.487 75.2705 339.269 79.2053 339.269 87.0748V131.609C339.269 139.55 335.487 143.521 327.924 143.521H315.859C308.236 143.521 304.424 139.55 304.424 131.609V87.0748C304.424 79.2053 308.236 75.2705 315.859 75.2705ZM326.393 129.57V89.221C326.393 87.4325 325.613 86.5382 324.052 86.5382H319.73C318.11 86.5382 317.299 87.4325 317.299 89.221V129.57C317.299 131.359 318.11 132.253 319.73 132.253H324.052C325.613 132.253 326.393 131.359 326.393 129.57Z" fill="url(#paint8_radial)"/>
      <path d="M380.273 63H396V154H380.634L363.946 99.4859V154H348.34V63H363.826L380.273 117.371V63Z" fill="url(#paint9_radial)"/>
    </g>
    <g opacity="0.9" filter="url(#filter1_d)">
      <path d="M29.8333 0V5.44811H23.6617V33H16.1188V5.44811H10V0H29.8333Z" fill="url(#paint10_radial)"/>
      <path d="M38.945 0H46.0133C50.4441 0 52.6595 1.90252 52.6595 5.70755V27.2406C52.6595 31.0802 50.4441 33 46.0133 33H38.945C34.479 33 32.246 31.0802 32.246 27.2406V5.70755C32.246 1.90252 34.479 0 38.945 0ZM45.1166 26.2547V6.74528C45.1166 5.8805 44.6594 5.44811 43.7451 5.44811H41.2132C40.2637 5.44811 39.789 5.8805 39.789 6.74528V26.2547C39.789 27.1195 40.2637 27.5519 41.2132 27.5519H43.7451C44.6594 27.5519 45.1166 27.1195 45.1166 26.2547Z" fill="url(#paint11_radial)"/>
      <path d="M74.906 0V5.44811H68.7345V33H61.1915V5.44811H55.0727V0H74.906Z" fill="url(#paint12_radial)"/>
      <path d="M92.8267 33L91.6662 27.033H84.0178L82.8573 33H75.4198L83.0155 0H92.6157L100.422 33H92.8267ZM85.0727 21.6368H90.5585L87.8156 7.67924L85.0727 21.6368Z" fill="url(#paint13_radial)"/>
      <path d="M110.518 27.5519H120.171V33H103.028V0H110.518V27.5519Z" fill="url(#paint14_radial)"/>
      <path d="M147.326 33L146.166 27.033H138.517L137.357 33H129.919L137.515 0H147.115L154.922 33H147.326ZM139.572 21.6368H145.058L142.315 7.67924L139.572 21.6368Z" fill="url(#paint15_radial)"/>
      <path d="M171.558 0H178.468V33H171.717L164.385 13.2311V33H157.527V0H164.332L171.558 19.717V0Z" fill="url(#paint16_radial)"/>
      <path d="M197.211 0H204.121V33H197.369L190.037 13.2311V33H183.18V0H189.985L197.211 19.717V0Z" fill="url(#paint17_radial)"/>
      <path d="M208.991 0H216.482V33H208.991V0Z" fill="url(#paint18_radial)"/>
      <path d="M235.591 0H243.029V33H235.591V19.4057H228.839V33H221.402V0H228.839V13.9575H235.591V0Z" fill="url(#paint19_radial)"/>
      <path d="M247.934 0H255.424V33H247.934V0Z" fill="url(#paint20_radial)"/>
      <path d="M267.835 27.5519H277.488V33H260.345V0H267.835V27.5519Z" fill="url(#paint21_radial)"/>
      <path d="M295.216 33L294.056 27.033H286.407L285.247 33H277.809L285.405 0H295.005L302.812 33H295.216ZM287.462 21.6368H292.948L290.205 7.67924L287.462 21.6368Z" fill="url(#paint22_radial)"/>
      <path d="M323.141 0V5.44811H316.969V33H309.426V5.44811H303.308V0H323.141Z" fill="url(#paint23_radial)"/>
      <path d="M325.923 0H333.413V33H325.923V0Z" fill="url(#paint24_radial)"/>
      <path d="M344.821 0H351.89C356.32 0 358.536 1.90252 358.536 5.70755V27.2406C358.536 31.0802 356.32 33 351.89 33H344.821C340.355 33 338.122 31.0802 338.122 27.2406V5.70755C338.122 1.90252 340.355 0 344.821 0ZM350.993 26.2547V6.74528C350.993 5.8805 350.536 5.44811 349.621 5.44811H347.09C346.14 5.44811 345.665 5.8805 345.665 6.74528V26.2547C345.665 27.1195 346.14 27.5519 347.09 27.5519H349.621C350.536 27.5519 350.993 27.1195 350.993 26.2547Z" fill="url(#paint25_radial)"/>
      <path d="M377.09 0H384V33H377.248L369.916 13.2311V33H363.059V0H369.863L377.09 19.717V0Z" fill="url(#paint26_radial)"/>
    </g>
    <g filter="url(#filter2_d)">
      <path d="M112.286 189H118.9V212.939C118.9 216.313 116.942 218 113.026 218H106.828C102.943 218 101 216.313 101 212.939V189H107.614V212.072C107.614 212.832 108.015 213.212 108.817 213.212H111.037C111.869 213.212 112.286 212.832 112.286 212.072V189Z" fill="url(#paint27_radial)"/>
      <path d="M137.614 189H143.673V218H137.753L131.324 200.627V218H125.311V189H131.277L137.614 206.327V189Z" fill="url(#paint28_radial)"/>
      <path d="M150.256 189H156.824V218H150.256V189Z" fill="url(#paint29_radial)"/>
      <path d="M178.992 189V193.788H173.581V218H166.966V193.788H161.601V189H178.992Z" fill="url(#paint30_radial)"/>
      <path d="M211.575 198.393H204.961V194.608C204.961 193.849 204.545 193.469 203.712 193.469H201.816C200.983 193.469 200.567 193.849 200.567 194.608V212.392C200.567 212.817 200.659 213.121 200.844 213.303C201.029 213.455 201.353 213.531 201.816 213.531H203.712C204.175 213.531 204.498 213.455 204.683 213.303C204.868 213.121 204.961 212.817 204.961 212.392V206.737H202.648V202.406H211.575V212.984C211.575 216.328 209.632 218 205.747 218H199.781C195.895 218 193.953 216.328 193.953 212.984V194.016C193.953 190.672 195.895 189 199.781 189H205.747C209.632 189 211.575 190.672 211.575 194.016V198.393Z" fill="url(#paint31_radial)"/>
      <path d="M228.83 189H235.444V212.939C235.444 216.313 233.486 218 229.57 218H223.372C219.487 218 217.544 216.313 217.544 212.939V189H224.158V212.072C224.158 212.832 224.559 213.212 225.361 213.212H227.581C228.414 213.212 228.83 212.832 228.83 212.072V189Z" fill="url(#paint32_radial)"/>
      <path d="M241.994 189H248.562V218H241.994V189Z" fill="url(#paint33_radial)"/>
      <path d="M255.513 189H267.77C271.686 189 273.644 190.672 273.644 194.016V212.939C273.644 216.313 271.686 218 267.77 218H255.513V189ZM267.03 212.392V194.608C267.03 193.849 266.613 193.469 265.781 193.469H262.127V213.531H265.781C266.613 213.531 267.03 213.151 267.03 212.392Z" fill="url(#paint34_radial)"/>
      <path d="M286.564 213.212H296V218H279.95V189H295.63V193.788H286.564V200.855H294.289V205.643H286.564V213.212Z" fill="url(#paint35_radial)"/>
    </g>
    <g filter="url(#filter3_d)">
      <rect x="316" y="201" width="58" height="6" fill="url(#paint36_radial)"/>
    </g>
    <g filter="url(#filter4_d)">
      <rect x="23" y="201" width="58" height="6" fill="url(#paint37_radial)"/>
    </g>
  </g>
  <defs>
    <filter id="filter0_d" x="0" y="63" width="404" height="99" filterUnits="userSpaceOnUse" color-interpolation-filters="sRGB">
      <feFlood flood-opacity="0" result="BackgroundImageFix"/>
      <feColorMatrix in="SourceAlpha" type="matrix" values="0 0 0 0 0 0 0 0 0 0 0 0 0 0 0 0 0 0 127 0"/>
      <feOffset dx="4" dy="4"/>
      <feGaussianBlur stdDeviation="2"/>
      <feColorMatrix type="matrix" values="0 0 0 0 0 0 0 0 0 0 0 0 0 0 0 0 0 0 0.38 0"/>
      <feBlend mode="normal" in2="BackgroundImageFix" result="effect1_dropShadow"/>
      <feBlend mode="normal" in="SourceGraphic" in2="effect1_dropShadow" result="shape"/>
    </filter>
    <filter id="filter1_d" x="10" y="0" width="382" height="41" filterUnits="userSpaceOnUse" color-interpolation-filters="sRGB">
      <feFlood flood-opacity="0" result="BackgroundImageFix"/>
      <feColorMatrix in="SourceAlpha" type="matrix" values="0 0 0 0 0 0 0 0 0 0 0 0 0 0 0 0 0 0 127 0"/>
      <feOffset dx="4" dy="4"/>
      <feGaussianBlur stdDeviation="2"/>
      <feColorMatrix type="matrix" values="0 0 0 0 0 0 0 0 0 0 0 0 0 0 0 0 0 0 0.38 0"/>
      <feBlend mode="normal" in2="BackgroundImageFix" result="effect1_dropShadow"/>
      <feBlend mode="normal" in="SourceGraphic" in2="effect1_dropShadow" result="shape"/>
    </filter>
    <filter id="filter2_d" x="97" y="189" width="203" height="37" filterUnits="userSpaceOnUse" color-interpolation-filters="sRGB">
      <feFlood flood-opacity="0" result="BackgroundImageFix"/>
      <feColorMatrix in="SourceAlpha" type="matrix" values="0 0 0 0 0 0 0 0 0 0 0 0 0 0 0 0 0 0 127 0"/>
      <feOffset dy="4"/>
      <feGaussianBlur stdDeviation="2"/>
      <feColorMatrix type="matrix" values="0 0 0 0 0 0 0 0 0 0 0 0 0 0 0 0 0 0 0.25 0"/>
      <feBlend mode="normal" in2="BackgroundImageFix" result="effect1_dropShadow"/>
      <feBlend mode="normal" in="SourceGraphic" in2="effect1_dropShadow" result="shape"/>
    </filter>
    <filter id="filter3_d" x="312" y="201" width="66" height="14" filterUnits="userSpaceOnUse" color-interpolation-filters="sRGB">
      <feFlood flood-opacity="0" result="BackgroundImageFix"/>
      <feColorMatrix in="SourceAlpha" type="matrix" values="0 0 0 0 0 0 0 0 0 0 0 0 0 0 0 0 0 0 127 0"/>
      <feOffset dy="4"/>
      <feGaussianBlur stdDeviation="2"/>
      <feColorMatrix type="matrix" values="0 0 0 0 0 0 0 0 0 0 0 0 0 0 0 0 0 0 0.25 0"/>
      <feBlend mode="normal" in2="BackgroundImageFix" result="effect1_dropShadow"/>
      <feBlend mode="normal" in="SourceGraphic" in2="effect1_dropShadow" result="shape"/>
    </filter>
    <filter id="filter4_d" x="19" y="201" width="66" height="14" filterUnits="userSpaceOnUse" color-interpolation-filters="sRGB">
      <feFlood flood-opacity="0" result="BackgroundImageFix"/>
      <feColorMatrix in="SourceAlpha" type="matrix" values="0 0 0 0 0 0 0 0 0 0 0 0 0 0 0 0 0 0 127 0"/>
      <feOffset dy="4"/>
      <feGaussianBlur stdDeviation="2"/>
      <feColorMatrix type="matrix" values="0 0 0 0 0 0 0 0 0 0 0 0 0 0 0 0 0 0 0.25 0"/>
      <feBlend mode="normal" in2="BackgroundImageFix" result="effect1_dropShadow"/>
      <feBlend mode="normal" in="SourceGraphic" in2="effect1_dropShadow" result="shape"/>
    </filter>
    <radialGradient id="paint0_radial" cx="0" cy="0" r="1" gradientUnits="userSpaceOnUse" gradientTransform="translate(-27.1348 125.635) scale(428.93 678.255)">
      <stop stop-color="white"/>
      <stop offset="0.392205" stop-color="white" stop-opacity="0.517071"/>
      <stop offset="0.695121" stop-color="white" stop-opacity="0.517071"/>
      <stop offset="1" stop-color="white"/>
    </radialGradient>
    <radialGradient id="paint1_radial" cx="0" cy="0" r="1" gradientUnits="userSpaceOnUse" gradientTransform="translate(-27.1348 125.635) scale(428.93 678.255)">
      <stop stop-color="white"/>
      <stop offset="0.392205" stop-color="white" stop-opacity="0.517071"/>
      <stop offset="0.695121" stop-color="white" stop-opacity="0.517071"/>
      <stop offset="1" stop-color="white"/>
    </radialGradient>
    <radialGradient id="paint2_radial" cx="0" cy="0" r="1" gradientUnits="userSpaceOnUse" gradientTransform="translate(-27.1348 125.635) scale(428.93 678.255)">
      <stop stop-color="white"/>
      <stop offset="0.392205" stop-color="white" stop-opacity="0.517071"/>
      <stop offset="0.695121" stop-color="white" stop-opacity="0.517071"/>
      <stop offset="1" stop-color="white"/>
    </radialGradient>
    <radialGradient id="paint3_radial" cx="0" cy="0" r="1" gradientUnits="userSpaceOnUse" gradientTransform="translate(-27.1348 125.635) scale(428.93 678.255)">
      <stop stop-color="white"/>
      <stop offset="0.392205" stop-color="white" stop-opacity="0.517071"/>
      <stop offset="0.695121" stop-color="white" stop-opacity="0.517071"/>
      <stop offset="1" stop-color="white"/>
    </radialGradient>
    <radialGradient id="paint4_radial" cx="0" cy="0" r="1" gradientUnits="userSpaceOnUse" gradientTransform="translate(-27.1348 125.635) scale(428.93 678.255)">
      <stop stop-color="white"/>
      <stop offset="0.392205" stop-color="white" stop-opacity="0.517071"/>
      <stop offset="0.695121" stop-color="white" stop-opacity="0.517071"/>
      <stop offset="1" stop-color="white"/>
    </radialGradient>
    <radialGradient id="paint5_radial" cx="0" cy="0" r="1" gradientUnits="userSpaceOnUse" gradientTransform="translate(-27.1348 125.635) scale(428.93 678.255)">
      <stop stop-color="white"/>
      <stop offset="0.392205" stop-color="white" stop-opacity="0.517071"/>
      <stop offset="0.695121" stop-color="white" stop-opacity="0.517071"/>
      <stop offset="1" stop-color="white"/>
    </radialGradient>
    <radialGradient id="paint6_radial" cx="0" cy="0" r="1" gradientUnits="userSpaceOnUse" gradientTransform="translate(-27.1348 125.635) scale(428.93 678.255)">
      <stop stop-color="white"/>
      <stop offset="0.392205" stop-color="white" stop-opacity="0.517071"/>
      <stop offset="0.695121" stop-color="white" stop-opacity="0.517071"/>
      <stop offset="1" stop-color="white"/>
    </radialGradient>
    <radialGradient id="paint7_radial" cx="0" cy="0" r="1" gradientUnits="userSpaceOnUse" gradientTransform="translate(-27.1348 125.635) scale(428.93 678.255)">
      <stop stop-color="white"/>
      <stop offset="0.392205" stop-color="white" stop-opacity="0.517071"/>
      <stop offset="0.695121" stop-color="white" stop-opacity="0.517071"/>
      <stop offset="1" stop-color="white"/>
    </radialGradient>
    <radialGradient id="paint8_radial" cx="0" cy="0" r="1" gradientUnits="userSpaceOnUse" gradientTransform="translate(-27.1348 125.635) scale(428.93 678.255)">
      <stop stop-color="white"/>
      <stop offset="0.392205" stop-color="white" stop-opacity="0.517071"/>
      <stop offset="0.695121" stop-color="white" stop-opacity="0.517071"/>
      <stop offset="1" stop-color="white"/>
    </radialGradient>
    <radialGradient id="paint9_radial" cx="0" cy="0" r="1" gradientUnits="userSpaceOnUse" gradientTransform="translate(-27.1348 125.635) scale(428.93 678.255)">
      <stop stop-color="white"/>
      <stop offset="0.392205" stop-color="white" stop-opacity="0.517071"/>
      <stop offset="0.695121" stop-color="white" stop-opacity="0.517071"/>
      <stop offset="1" stop-color="white"/>
    </radialGradient>
    <radialGradient id="paint10_radial" cx="0" cy="0" r="1" gradientUnits="userSpaceOnUse" gradientTransform="translate(71.191 62.0319) rotate(-19.9372) scale(320.633 230.754)">
      <stop offset="0.0963214" stop-color="white" stop-opacity="0.517071"/>
      <stop offset="0.311742" stop-color="#FDFDFD"/>
      <stop offset="0.648583" stop-color="white" stop-opacity="0.517071"/>
      <stop offset="0.907452" stop-color="white"/>
    </radialGradient>
    <radialGradient id="paint11_radial" cx="0" cy="0" r="1" gradientUnits="userSpaceOnUse" gradientTransform="translate(71.191 62.0319) rotate(-19.9372) scale(320.633 230.754)">
      <stop offset="0.0963214" stop-color="white" stop-opacity="0.517071"/>
      <stop offset="0.311742" stop-color="#FDFDFD"/>
      <stop offset="0.648583" stop-color="white" stop-opacity="0.517071"/>
      <stop offset="0.907452" stop-color="white"/>
    </radialGradient>
    <radialGradient id="paint12_radial" cx="0" cy="0" r="1" gradientUnits="userSpaceOnUse" gradientTransform="translate(71.191 62.0319) rotate(-19.9372) scale(320.633 230.754)">
      <stop offset="0.0963214" stop-color="white" stop-opacity="0.517071"/>
      <stop offset="0.311742" stop-color="#FDFDFD"/>
      <stop offset="0.648583" stop-color="white" stop-opacity="0.517071"/>
      <stop offset="0.907452" stop-color="white"/>
    </radialGradient>
    <radialGradient id="paint13_radial" cx="0" cy="0" r="1" gradientUnits="userSpaceOnUse" gradientTransform="translate(71.191 62.0319) rotate(-19.9372) scale(320.633 230.754)">
      <stop offset="0.0963214" stop-color="white" stop-opacity="0.517071"/>
      <stop offset="0.311742" stop-color="#FDFDFD"/>
      <stop offset="0.648583" stop-color="white" stop-opacity="0.517071"/>
      <stop offset="0.907452" stop-color="white"/>
    </radialGradient>
    <radialGradient id="paint14_radial" cx="0" cy="0" r="1" gradientUnits="userSpaceOnUse" gradientTransform="translate(71.191 62.0319) rotate(-19.9372) scale(320.633 230.754)">
      <stop offset="0.0963214" stop-color="white" stop-opacity="0.517071"/>
      <stop offset="0.311742" stop-color="#FDFDFD"/>
      <stop offset="0.648583" stop-color="white" stop-opacity="0.517071"/>
      <stop offset="0.907452" stop-color="white"/>
    </radialGradient>
    <radialGradient id="paint15_radial" cx="0" cy="0" r="1" gradientUnits="userSpaceOnUse" gradientTransform="translate(71.191 62.0319) rotate(-19.9372) scale(320.633 230.754)">
      <stop offset="0.0963214" stop-color="white" stop-opacity="0.517071"/>
      <stop offset="0.311742" stop-color="#FDFDFD"/>
      <stop offset="0.648583" stop-color="white" stop-opacity="0.517071"/>
      <stop offset="0.907452" stop-color="white"/>
    </radialGradient>
    <radialGradient id="paint16_radial" cx="0" cy="0" r="1" gradientUnits="userSpaceOnUse" gradientTransform="translate(71.191 62.0319) rotate(-19.9372) scale(320.633 230.754)">
      <stop offset="0.0963214" stop-color="white" stop-opacity="0.517071"/>
      <stop offset="0.311742" stop-color="#FDFDFD"/>
      <stop offset="0.648583" stop-color="white" stop-opacity="0.517071"/>
      <stop offset="0.907452" stop-color="white"/>
    </radialGradient>
    <radialGradient id="paint17_radial" cx="0" cy="0" r="1" gradientUnits="userSpaceOnUse" gradientTransform="translate(71.191 62.0319) rotate(-19.9372) scale(320.633 230.754)">
      <stop offset="0.0963214" stop-color="white" stop-opacity="0.517071"/>
      <stop offset="0.311742" stop-color="#FDFDFD"/>
      <stop offset="0.648583" stop-color="white" stop-opacity="0.517071"/>
      <stop offset="0.907452" stop-color="white"/>
    </radialGradient>
    <radialGradient id="paint18_radial" cx="0" cy="0" r="1" gradientUnits="userSpaceOnUse" gradientTransform="translate(71.191 62.0319) rotate(-19.9372) scale(320.633 230.754)">
      <stop offset="0.0963214" stop-color="white" stop-opacity="0.517071"/>
      <stop offset="0.311742" stop-color="#FDFDFD"/>
      <stop offset="0.648583" stop-color="white" stop-opacity="0.517071"/>
      <stop offset="0.907452" stop-color="white"/>
    </radialGradient>
    <radialGradient id="paint19_radial" cx="0" cy="0" r="1" gradientUnits="userSpaceOnUse" gradientTransform="translate(71.191 62.0319) rotate(-19.9372) scale(320.633 230.754)">
      <stop offset="0.0963214" stop-color="white" stop-opacity="0.517071"/>
      <stop offset="0.311742" stop-color="#FDFDFD"/>
      <stop offset="0.648583" stop-color="white" stop-opacity="0.517071"/>
      <stop offset="0.907452" stop-color="white"/>
    </radialGradient>
    <radialGradient id="paint20_radial" cx="0" cy="0" r="1" gradientUnits="userSpaceOnUse" gradientTransform="translate(71.191 62.0319) rotate(-19.9372) scale(320.633 230.754)">
      <stop offset="0.0963214" stop-color="white" stop-opacity="0.517071"/>
      <stop offset="0.311742" stop-color="#FDFDFD"/>
      <stop offset="0.648583" stop-color="white" stop-opacity="0.517071"/>
      <stop offset="0.907452" stop-color="white"/>
    </radialGradient>
    <radialGradient id="paint21_radial" cx="0" cy="0" r="1" gradientUnits="userSpaceOnUse" gradientTransform="translate(71.191 62.0319) rotate(-19.9372) scale(320.633 230.754)">
      <stop offset="0.0963214" stop-color="white" stop-opacity="0.517071"/>
      <stop offset="0.311742" stop-color="#FDFDFD"/>
      <stop offset="0.648583" stop-color="white" stop-opacity="0.517071"/>
      <stop offset="0.907452" stop-color="white"/>
    </radialGradient>
    <radialGradient id="paint22_radial" cx="0" cy="0" r="1" gradientUnits="userSpaceOnUse" gradientTransform="translate(71.191 62.0319) rotate(-19.9372) scale(320.633 230.754)">
      <stop offset="0.0963214" stop-color="white" stop-opacity="0.517071"/>
      <stop offset="0.311742" stop-color="#FDFDFD"/>
      <stop offset="0.648583" stop-color="white" stop-opacity="0.517071"/>
      <stop offset="0.907452" stop-color="white"/>
    </radialGradient>
    <radialGradient id="paint23_radial" cx="0" cy="0" r="1" gradientUnits="userSpaceOnUse" gradientTransform="translate(71.191 62.0319) rotate(-19.9372) scale(320.633 230.754)">
      <stop offset="0.0963214" stop-color="white" stop-opacity="0.517071"/>
      <stop offset="0.311742" stop-color="#FDFDFD"/>
      <stop offset="0.648583" stop-color="white" stop-opacity="0.517071"/>
      <stop offset="0.907452" stop-color="white"/>
    </radialGradient>
    <radialGradient id="paint24_radial" cx="0" cy="0" r="1" gradientUnits="userSpaceOnUse" gradientTransform="translate(71.191 62.0319) rotate(-19.9372) scale(320.633 230.754)">
      <stop offset="0.0963214" stop-color="white" stop-opacity="0.517071"/>
      <stop offset="0.311742" stop-color="#FDFDFD"/>
      <stop offset="0.648583" stop-color="white" stop-opacity="0.517071"/>
      <stop offset="0.907452" stop-color="white"/>
    </radialGradient>
    <radialGradient id="paint25_radial" cx="0" cy="0" r="1" gradientUnits="userSpaceOnUse" gradientTransform="translate(71.191 62.0319) rotate(-19.9372) scale(320.633 230.754)">
      <stop offset="0.0963214" stop-color="white" stop-opacity="0.517071"/>
      <stop offset="0.311742" stop-color="#FDFDFD"/>
      <stop offset="0.648583" stop-color="white" stop-opacity="0.517071"/>
      <stop offset="0.907452" stop-color="white"/>
    </radialGradient>
    <radialGradient id="paint26_radial" cx="0" cy="0" r="1" gradientUnits="userSpaceOnUse" gradientTransform="translate(71.191 62.0319) rotate(-19.9372) scale(320.633 230.754)">
      <stop offset="0.0963214" stop-color="white" stop-opacity="0.517071"/>
      <stop offset="0.311742" stop-color="#FDFDFD"/>
      <stop offset="0.648583" stop-color="white" stop-opacity="0.517071"/>
      <stop offset="0.907452" stop-color="white"/>
    </radialGradient>
    <radialGradient id="paint27_radial" cx="0" cy="0" r="1" gradientUnits="userSpaceOnUse" gradientTransform="translate(98.6577 207.328) rotate(0.90978) scale(213.854 560.275)">
      <stop stop-color="#DEA73C"/>
      <stop offset="0.226519" stop-color="#DEA73C" stop-opacity="0.75"/>
      <stop offset="0.59116" stop-color="#DEA73C"/>
      <stop offset="0.906077" stop-color="#DEA73C" stop-opacity="0.75"/>
    </radialGradient>
    <radialGradient id="paint28_radial" cx="0" cy="0" r="1" gradientUnits="userSpaceOnUse" gradientTransform="translate(98.6577 207.328) rotate(0.90978) scale(213.854 560.275)">
      <stop stop-color="#DEA73C"/>
      <stop offset="0.226519" stop-color="#DEA73C" stop-opacity="0.75"/>
      <stop offset="0.59116" stop-color="#DEA73C"/>
      <stop offset="0.906077" stop-color="#DEA73C" stop-opacity="0.75"/>
    </radialGradient>
    <radialGradient id="paint29_radial" cx="0" cy="0" r="1" gradientUnits="userSpaceOnUse" gradientTransform="translate(98.6577 207.328) rotate(0.90978) scale(213.854 560.275)">
      <stop stop-color="#DEA73C"/>
      <stop offset="0.226519" stop-color="#DEA73C" stop-opacity="0.75"/>
      <stop offset="0.59116" stop-color="#DEA73C"/>
      <stop offset="0.906077" stop-color="#DEA73C" stop-opacity="0.75"/>
    </radialGradient>
    <radialGradient id="paint30_radial" cx="0" cy="0" r="1" gradientUnits="userSpaceOnUse" gradientTransform="translate(98.6577 207.328) rotate(0.90978) scale(213.854 560.275)">
      <stop stop-color="#DEA73C"/>
      <stop offset="0.226519" stop-color="#DEA73C" stop-opacity="0.75"/>
      <stop offset="0.59116" stop-color="#DEA73C"/>
      <stop offset="0.906077" stop-color="#DEA73C" stop-opacity="0.75"/>
    </radialGradient>
    <radialGradient id="paint31_radial" cx="0" cy="0" r="1" gradientUnits="userSpaceOnUse" gradientTransform="translate(98.6577 207.328) rotate(0.90978) scale(213.854 560.275)">
      <stop stop-color="#DEA73C"/>
      <stop offset="0.226519" stop-color="#DEA73C" stop-opacity="0.75"/>
      <stop offset="0.59116" stop-color="#DEA73C"/>
      <stop offset="0.906077" stop-color="#DEA73C" stop-opacity="0.75"/>
    </radialGradient>
    <radialGradient id="paint32_radial" cx="0" cy="0" r="1" gradientUnits="userSpaceOnUse" gradientTransform="translate(98.6577 207.328) rotate(0.90978) scale(213.854 560.275)">
      <stop stop-color="#DEA73C"/>
      <stop offset="0.226519" stop-color="#DEA73C" stop-opacity="0.75"/>
      <stop offset="0.59116" stop-color="#DEA73C"/>
      <stop offset="0.906077" stop-color="#DEA73C" stop-opacity="0.75"/>
    </radialGradient>
    <radialGradient id="paint33_radial" cx="0" cy="0" r="1" gradientUnits="userSpaceOnUse" gradientTransform="translate(98.6577 207.328) rotate(0.90978) scale(213.854 560.275)">
      <stop stop-color="#DEA73C"/>
      <stop offset="0.226519" stop-color="#DEA73C" stop-opacity="0.75"/>
      <stop offset="0.59116" stop-color="#DEA73C"/>
      <stop offset="0.906077" stop-color="#DEA73C" stop-opacity="0.75"/>
    </radialGradient>
    <radialGradient id="paint34_radial" cx="0" cy="0" r="1" gradientUnits="userSpaceOnUse" gradientTransform="translate(98.6577 207.328) rotate(0.90978) scale(213.854 560.275)">
      <stop stop-color="#DEA73C"/>
      <stop offset="0.226519" stop-color="#DEA73C" stop-opacity="0.75"/>
      <stop offset="0.59116" stop-color="#DEA73C"/>
      <stop offset="0.906077" stop-color="#DEA73C" stop-opacity="0.75"/>
    </radialGradient>
    <radialGradient id="paint35_radial" cx="0" cy="0" r="1" gradientUnits="userSpaceOnUse" gradientTransform="translate(98.6577 207.328) rotate(0.90978) scale(213.854 560.275)">
      <stop stop-color="#DEA73C"/>
      <stop offset="0.226519" stop-color="#DEA73C" stop-opacity="0.75"/>
      <stop offset="0.59116" stop-color="#DEA73C"/>
      <stop offset="0.906077" stop-color="#DEA73C" stop-opacity="0.75"/>
    </radialGradient>
    <radialGradient id="paint36_radial" cx="0" cy="0" r="1" gradientUnits="userSpaceOnUse" gradientTransform="translate(315.303 204.792) rotate(0.632871) scale(63.6036 115.926)">
      <stop stop-color="#DEA73C"/>
      <stop offset="0.425414" stop-color="#DEA73C" stop-opacity="0.75"/>
      <stop offset="0.723757" stop-color="#DEA73C"/>
      <stop offset="0.906077" stop-color="#DEA73C" stop-opacity="0.75"/>
    </radialGradient>
    <radialGradient id="paint37_radial" cx="0" cy="0" r="1" gradientUnits="userSpaceOnUse" gradientTransform="translate(22.3033 204.792) rotate(0.632871) scale(63.6036 115.926)">
      <stop stop-color="#DEA73C"/>
      <stop offset="0.425414" stop-color="#DEA73C" stop-opacity="0.75"/>
      <stop offset="0.723757" stop-color="#DEA73C"/>
      <stop offset="0.906077" stop-color="#DEA73C" stop-opacity="0.75"/>
    </radialGradient>
  </defs>
</svg>
