<svg width="535" height="104" viewBox="0 0 535 104" fill="none" xmlns="http://www.w3.org/2000/svg">
<path d="M19.9074 1.826V7.701H14.0794V32H5.85438V7.701H0.0733789V1.826H19.9074ZM28.4445 8.547H34.4135C36.7948 8.547 38.5025 9.04833 39.5365 10.051C40.5705 11.0537 41.0875 12.495 41.0875 14.375V26.172C41.0875 28.052 40.5705 29.4933 39.5365 30.496C38.5025 31.4987 36.7948 32 34.4135 32H28.4445C26.0632 32 24.3555 31.4987 23.3215 30.496C22.2875 29.4933 21.7705 28.052 21.7705 26.172V14.375C21.7705 12.495 22.2875 11.0537 23.3215 10.051C24.3555 9.04833 26.0632 8.547 28.4445 8.547ZM33.2385 25.42V15.127C33.2385 14.4377 32.8468 14.093 32.0635 14.093H30.7945C30.0112 14.093 29.6195 14.4377 29.6195 15.127V25.42C29.6195 26.1093 30.0112 26.454 30.7945 26.454H32.0635C32.8468 26.454 33.2385 26.1093 33.2385 25.42ZM56.5244 14.422H53.5634V25.091C53.5634 25.7803 53.9551 26.125 54.7384 26.125H56.4774V32H52.4824C47.8764 32 45.5734 30.0573 45.5734 26.172V14.422H42.9884V8.547H45.5734V3.941H53.5634V8.547H56.5244V14.422ZM69.7659 8.547H77.6149V32H69.6249V29.462C69.0296 31.154 67.6509 32 65.4889 32H64.6429C60.4756 32 58.3919 30.0573 58.3919 26.172V14.375C58.3919 10.4897 60.4756 8.547 64.6429 8.547H65.4889C67.9016 8.547 69.3273 9.54967 69.7659 11.555V8.547ZM67.5569 26.125H68.3559C69.2019 26.125 69.6249 25.655 69.6249 24.715V15.832C69.6249 14.892 69.2019 14.422 68.3559 14.422H67.5569C66.7736 14.422 66.3819 14.7667 66.3819 15.456V25.091C66.3819 25.7803 66.7736 26.125 67.5569 26.125ZM89.3422 32H81.3522V0.556999H89.3422V32ZM117.88 32L116.94 27.488H109.702L108.715 32H100.631L108.386 1.826H118.397L126.152 32H117.88ZM110.971 21.66H115.671L113.368 10.803L110.971 21.66ZM140.157 8.547H141.003C145.17 8.547 147.254 10.4897 147.254 14.375V32H139.264V15.456C139.264 14.7667 138.872 14.422 138.089 14.422H137.29C136.444 14.422 136.021 14.892 136.021 15.832V32H128.031V8.547H135.88V11.555C136.319 9.54967 137.744 8.547 140.157 8.547ZM162.923 8.547H163.769C167.936 8.547 170.02 10.4897 170.02 14.375V32H162.03V15.456C162.03 14.7667 161.638 14.422 160.855 14.422H160.056C159.21 14.422 158.787 14.892 158.787 15.832V32H150.797V8.547H158.646V11.555C159.084 9.54967 160.51 8.547 162.923 8.547ZM173.421 6.197V0.556999H181.693V6.197H173.421ZM181.552 32H173.562V8.547H181.552V32ZM197.438 8.547H198.284C202.451 8.547 204.535 10.4897 204.535 14.375V32H196.545V15.456C196.545 14.7667 196.153 14.422 195.37 14.422H194.571C193.725 14.422 193.302 14.892 193.302 15.832V32H185.312V0.556999H193.302V11.085C193.897 9.393 195.276 8.547 197.438 8.547ZM207.937 6.197V0.556999H216.209V6.197H207.937ZM216.068 32H208.078V8.547H216.068V32ZM227.818 32H219.828V0.556999H227.818V32ZM242.482 8.547H250.331V32H242.341V29.462C241.745 31.154 240.367 32 238.205 32H237.359C233.191 32 231.108 30.0573 231.108 26.172V14.375C231.108 10.4897 233.191 8.547 237.359 8.547H238.205C240.617 8.547 242.043 9.54967 242.482 11.555V8.547ZM240.273 26.125H241.072C241.918 26.125 242.341 25.655 242.341 24.715V15.832C242.341 14.892 241.918 14.422 241.072 14.422H240.273C239.489 14.422 239.098 14.7667 239.098 15.456V25.091C239.098 25.7803 239.489 26.125 240.273 26.125ZM265.959 14.422H262.998V25.091C262.998 25.7803 263.39 26.125 264.173 26.125H265.912V32H261.917C257.311 32 255.008 30.0573 255.008 26.172V14.422H252.423V8.547H255.008V3.941H262.998V8.547H265.959V14.422ZM268.156 6.197V0.556999H276.428V6.197H268.156ZM276.287 32H268.297V8.547H276.287V32ZM286.486 8.547H292.455C294.836 8.547 296.544 9.04833 297.578 10.051C298.612 11.0537 299.129 12.495 299.129 14.375V26.172C299.129 28.052 298.612 29.4933 297.578 30.496C296.544 31.4987 294.836 32 292.455 32H286.486C284.104 32 282.397 31.4987 281.363 30.496C280.329 29.4933 279.812 28.052 279.812 26.172V14.375C279.812 12.495 280.329 11.0537 281.363 10.051C282.397 9.04833 284.104 8.547 286.486 8.547ZM291.28 25.42V15.127C291.28 14.4377 290.888 14.093 290.105 14.093H288.836C288.052 14.093 287.661 14.4377 287.661 15.127V25.42C287.661 26.1093 288.052 26.454 288.836 26.454H290.105C290.888 26.454 291.28 26.1093 291.28 25.42ZM314.8 8.547H315.646C319.814 8.547 321.897 10.4897 321.897 14.375V32H313.907V15.456C313.907 14.7667 313.516 14.422 312.732 14.422H311.933C311.087 14.422 310.664 14.892 310.664 15.832V32H302.674V8.547H310.523V11.555C310.962 9.54967 312.388 8.547 314.8 8.547ZM325.44 32V24.292H333.524V32H325.44ZM325.44 16.255V8.547H333.524V16.255H325.44ZM354.916 26.125H365.209V32H346.691V1.826H364.786V7.701H354.916V13.858H363.423V19.733H354.916V26.125ZM377.909 25.796V23.916C377.909 23.2267 377.518 22.882 376.734 22.882H373.867C369.355 22.882 367.099 20.955 367.099 17.101V14.375C367.099 10.4897 369.402 8.547 374.008 8.547H378.379C382.985 8.547 385.288 10.4897 385.288 14.375V16.349H377.674V14.751C377.674 14.0617 377.283 13.717 376.499 13.717H376.029C375.246 13.717 374.854 14.0617 374.854 14.751V16.819C374.854 17.5083 375.246 17.853 376.029 17.853H378.896C381.309 17.853 383.032 18.3543 384.066 19.357C385.132 20.3283 385.664 21.7383 385.664 23.587V26.172C385.664 30.0573 383.361 32 378.755 32H374.149C369.543 32 367.24 30.0573 367.24 26.172V24.245H374.995V25.796C374.995 26.4853 375.387 26.83 376.17 26.83H376.734C377.518 26.83 377.909 26.4853 377.909 25.796ZM407.111 17.618H399.403V15.456C399.403 14.7667 399.011 14.422 398.228 14.422H397.429C396.646 14.422 396.254 14.7667 396.254 15.456V25.091C396.254 25.7803 396.646 26.125 397.429 26.125H398.228C399.011 26.125 399.403 25.7803 399.403 25.091V22.929H407.111V26.172C407.111 30.0573 404.808 32 400.202 32H395.173C390.567 32 388.264 30.0573 388.264 26.172V14.375C388.264 10.4897 390.567 8.547 395.173 8.547H400.202C404.808 8.547 407.111 10.4897 407.111 14.375V17.618ZM420.843 8.547H428.692V32H420.702V29.462C420.107 31.154 418.728 32 416.566 32H415.72C411.553 32 409.469 30.0573 409.469 26.172V14.375C409.469 10.4897 411.553 8.547 415.72 8.547H416.566C418.979 8.547 420.404 9.54967 420.843 11.555V8.547ZM418.634 26.125H419.433C420.279 26.125 420.702 25.655 420.702 24.715V15.832C420.702 14.892 420.279 14.422 419.433 14.422H418.634C417.851 14.422 417.459 14.7667 417.459 15.456V25.091C417.459 25.7803 417.851 26.125 418.634 26.125ZM440.419 32H432.429V0.556999H440.419V32ZM455.083 8.547H462.932V32H454.942V29.462C454.347 31.154 452.968 32 450.806 32H449.96C445.793 32 443.709 30.0573 443.709 26.172V14.375C443.709 10.4897 445.793 8.547 449.96 8.547H450.806C453.219 8.547 454.645 9.54967 455.083 11.555V8.547ZM452.874 26.125H453.673C454.519 26.125 454.942 25.655 454.942 24.715V15.832C454.942 14.892 454.519 14.422 453.673 14.422H452.874C452.091 14.422 451.699 14.7667 451.699 15.456V25.091C451.699 25.7803 452.091 26.125 452.874 26.125ZM478.561 14.422H475.6V25.091C475.6 25.7803 475.991 26.125 476.775 26.125H478.514V32H474.519C469.913 32 467.61 30.0573 467.61 26.172V14.422H465.025V8.547H467.61V3.941H475.6V8.547H478.561V14.422ZM480.757 6.197V0.556999H489.029V6.197H480.757ZM488.888 32H480.898V8.547H488.888V32ZM499.087 8.547H505.056C507.437 8.547 509.145 9.04833 510.179 10.051C511.213 11.0537 511.73 12.495 511.73 14.375V26.172C511.73 28.052 511.213 29.4933 510.179 30.496C509.145 31.4987 507.437 32 505.056 32H499.087C496.706 32 494.998 31.4987 493.964 30.496C492.93 29.4933 492.413 28.052 492.413 26.172V14.375C492.413 12.495 492.93 11.0537 493.964 10.051C494.998 9.04833 496.706 8.547 499.087 8.547ZM503.881 25.42V15.127C503.881 14.4377 503.489 14.093 502.706 14.093H501.437C500.654 14.093 500.262 14.4377 500.262 15.127V25.42C500.262 26.1093 500.654 26.454 501.437 26.454H502.706C503.489 26.454 503.881 26.1093 503.881 25.42ZM527.402 8.547H528.248C532.415 8.547 534.499 10.4897 534.499 14.375V32H526.509V15.456C526.509 14.7667 526.117 14.422 525.334 14.422H524.535C523.689 14.422 523.266 14.892 523.266 15.832V32H515.276V8.547H523.125V11.555C523.564 9.54967 524.989 8.547 527.402 8.547Z" fill="white"/>
<path d="M130.447 55.208H143.747V94.576C143.747 100.859 140.023 104 132.575 104H121.327C113.879 104 110.155 100.859 110.155 94.576V55.208H123.455V92.828C123.455 93.9427 124.089 94.5 125.355 94.5H128.547C129.814 94.5 130.447 93.9427 130.447 92.828V55.208ZM173.27 66.076H174.638C181.377 66.076 184.746 69.2173 184.746 75.5V104H171.826V77.248C171.826 76.1333 171.193 75.576 169.926 75.576H168.634C167.266 75.576 166.582 76.336 166.582 77.856V104H153.662V66.076H166.354V70.94C167.064 67.6973 169.369 66.076 173.27 66.076ZM194.047 62.276V53.156H207.423V62.276H194.047ZM207.195 104H194.275V66.076H207.195V104ZM236.303 75.576H231.515V92.828C231.515 93.9427 232.148 94.5 233.415 94.5H236.227V104H229.767C222.319 104 218.595 100.859 218.595 94.576V75.576H214.415V66.076H218.595V58.628H231.515V66.076H236.303V75.576ZM295.653 71.928H282.353V65.62C282.353 64.5053 281.72 63.948 280.453 63.948H277.717C276.451 63.948 275.817 64.5053 275.817 65.62V93.588C275.817 94.7027 276.451 95.26 277.717 95.26H280.453C281.72 95.26 282.353 94.7027 282.353 93.588V85.456H278.553V77.02H295.653V94.576C295.653 100.859 291.929 104 284.481 104H273.689C266.241 104 262.517 100.859 262.517 94.576V64.632C262.517 58.3493 266.241 55.208 273.689 55.208H284.481C291.929 55.208 295.653 58.3493 295.653 64.632V71.928ZM322.556 66.076H335.476V104H322.784V99.136C322.074 102.379 319.769 104 315.868 104H314.5C307.761 104 304.392 100.859 304.392 94.576V66.076H317.312V92.828C317.312 93.9427 317.945 94.5 319.212 94.5H320.504C321.872 94.5 322.556 93.74 322.556 92.22V66.076ZM345.156 62.276V53.156H358.532V62.276H345.156ZM358.304 104H345.384V66.076H358.304V104ZM385.588 53.156H398.508V104H385.816V99.136C385.107 102.379 382.801 104 378.9 104H377.532C370.793 104 367.424 100.859 367.424 94.576V75.5C367.424 69.2173 370.793 66.076 377.532 66.076H378.9C382.396 66.076 384.625 67.444 385.588 70.18V53.156ZM382.244 94.5H383.536C384.904 94.5 385.588 93.74 385.588 92.22V77.856C385.588 76.336 384.904 75.576 383.536 75.576H382.244C380.977 75.576 380.344 76.1333 380.344 77.248V92.828C380.344 93.9427 380.977 94.5 382.244 94.5ZM418.763 66.076H428.035C435.483 66.076 439.207 69.2173 439.207 75.5V88.42H419.827V93.436C419.827 94.5507 420.461 95.108 421.727 95.108H425.071C426.338 95.108 426.971 94.5 426.971 93.284V91.156H439.207V94.576C439.207 100.859 435.483 104 428.035 104H418.763C411.315 104 407.591 100.859 407.591 94.576V75.5C407.591 69.2173 411.315 66.076 418.763 66.076ZM419.827 81.428H426.971V76.64C426.971 75.5253 426.338 74.968 425.071 74.968H421.727C420.461 74.968 419.827 75.5253 419.827 76.64V81.428Z" fill="#DEA73C"/>
</svg>
