<svg width="130" height="10" viewBox="0 0 130 10" fill="none" xmlns="http://www.w3.org/2000/svg">
<path d="M0.609902 9.5L2.4099 0.5H11.8878L10.0537 9.5H0.609902Z" fill="#E9E347" stroke="#E9E347"/>
<path d="M13.6099 9.5L15.4099 0.5H24.8878L23.0537 9.5H13.6099Z" fill="#E9E347" stroke="#E9E347"/>
<path d="M26.6099 9.5L28.4099 0.5H37.8878L36.0537 9.5H26.6099Z" fill="#E9E347" stroke="#E9E347"/>
<path d="M39.6099 9.5L41.4099 0.5H50.8878L49.0537 9.5H39.6099Z" fill="#E9E347" stroke="#E9E347"/>
<path d="M52.6099 9.5L54.4099 0.5H63.8878L62.0537 9.5H52.6099Z" fill="#E9E347" stroke="#E9E347"/>
<path d="M65.6099 9.5L67.4099 0.5H76.8878L75.0537 9.5H65.6099Z" fill="#212121" stroke="#757575"/>
<path d="M78.6099 9.5L80.4099 0.5H89.8878L88.0537 9.5H78.6099Z" fill="#212121" stroke="#757575"/>
<path d="M91.6099 9.5L93.4099 0.5H102.888L101.054 9.5H91.6099Z" fill="#212121" stroke="#757575"/>
<path d="M104.61 9.5L106.41 0.5H115.888L114.054 9.5H104.61Z" fill="#212121" stroke="#757575"/>
<path d="M117.61 9.5L119.41 0.5H128.888L127.054 9.5H117.61Z" fill="#212121" stroke="#757575"/>
</svg>
