<svg width="1440" height="89" viewBox="0 0 1440 89" fill="none" xmlns="http://www.w3.org/2000/svg">
<line x1="620" y1="44" y2="44" stroke="white" stroke-width="4"/>
<line x1="1440" y1="44" x2="820" y2="44" stroke="white" stroke-width="4"/>
<path d="M665.151 2L618 43.7735L665.151 87H775.289L821 43.7735L775.289 2H665.151Z" fill="black"/>
<path d="M605.151 2L558 43.7735L605.151 87H834.289L871.403 51.9031L880 43.7735L834.289 2H803H605.151Z" fill="black" stroke="white" stroke-width="4"/>
<path d="M621.905 37.106H613.68V32.265C613.68 31.5757 613.288 31.231 612.505 31.231H610.86C610.077 31.231 609.685 31.5757 609.685 32.265V49.561C609.685 50.2503 610.077 50.595 610.86 50.595H612.505C613.288 50.595 613.68 50.2503 613.68 49.561V44.908H621.905V50.172C621.905 54.0573 619.602 56 614.996 56H608.369C603.763 56 601.46 54.0573 601.46 50.172V31.654C601.46 27.7687 603.763 25.826 608.369 25.826H614.996C619.602 25.826 621.905 27.7687 621.905 31.654V37.106ZM631.404 32.547H637.373C639.755 32.547 641.462 33.0483 642.496 34.051C643.53 35.0537 644.047 36.495 644.047 38.375V50.172C644.047 52.052 643.53 53.4933 642.496 54.496C641.462 55.4987 639.755 56 637.373 56H631.404C629.023 56 627.315 55.4987 626.281 54.496C625.247 53.4933 624.73 52.052 624.73 50.172V38.375C624.73 36.495 625.247 35.0537 626.281 34.051C627.315 33.0483 629.023 32.547 631.404 32.547ZM636.198 49.42V39.127C636.198 38.4377 635.807 38.093 635.023 38.093H633.754C632.971 38.093 632.579 38.4377 632.579 39.127V49.42C632.579 50.1093 632.971 50.454 633.754 50.454H635.023C635.807 50.454 636.198 50.1093 636.198 49.42ZM670.952 32.547H671.798C675.966 32.547 678.049 34.4897 678.049 38.375V56H670.059V39.456C670.059 38.7667 669.668 38.422 668.884 38.422H668.085C667.239 38.422 666.816 38.892 666.816 39.832V56H658.826V39.456C658.826 38.7667 658.435 38.422 657.651 38.422H656.852C656.006 38.422 655.583 38.892 655.583 39.832V56H647.593V32.547H655.442V35.555C655.881 33.5497 657.307 32.547 659.719 32.547H660.565C663.479 32.547 665.391 33.534 666.299 35.508C666.55 34.5993 667.098 33.8787 667.944 33.346C668.79 32.8133 669.793 32.547 670.952 32.547ZM704.917 32.547H705.763C709.931 32.547 712.014 34.4897 712.014 38.375V56H704.024V39.456C704.024 38.7667 703.633 38.422 702.849 38.422H702.05C701.204 38.422 700.781 38.892 700.781 39.832V56H692.791V39.456C692.791 38.7667 692.4 38.422 691.616 38.422H690.817C689.971 38.422 689.548 38.892 689.548 39.832V56H681.558V32.547H689.407V35.555C689.846 33.5497 691.272 32.547 693.684 32.547H694.53C697.444 32.547 699.356 33.534 700.264 35.508C700.515 34.5993 701.063 33.8787 701.909 33.346C702.755 32.8133 703.758 32.547 704.917 32.547ZM726.427 32.547H734.276V56H726.286V53.462C725.691 55.154 724.312 56 722.15 56H721.304C717.137 56 715.053 54.0573 715.053 50.172V38.375C715.053 34.4897 717.137 32.547 721.304 32.547H722.15C724.563 32.547 725.988 33.5497 726.427 35.555V32.547ZM724.218 50.125H725.017C725.863 50.125 726.286 49.655 726.286 48.715V39.832C726.286 38.892 725.863 38.422 725.017 38.422H724.218C723.435 38.422 723.043 38.7667 723.043 39.456V49.091C723.043 49.7803 723.435 50.125 724.218 50.125ZM750.139 32.547H750.985C755.153 32.547 757.236 34.4897 757.236 38.375V56H749.246V39.456C749.246 38.7667 748.855 38.422 748.071 38.422H747.272C746.426 38.422 746.003 38.892 746.003 39.832V56H738.013V32.547H745.862V35.555C746.301 33.5497 747.727 32.547 750.139 32.547ZM771.542 24.557H779.532V56H771.683V52.992C771.244 54.9973 769.819 56 767.406 56H766.56C762.393 56 760.309 54.0573 760.309 50.172V38.375C760.309 34.4897 762.393 32.547 766.56 32.547H767.406C769.568 32.547 770.947 33.393 771.542 35.085V24.557ZM769.474 50.125H770.273C771.119 50.125 771.542 49.655 771.542 48.715V39.832C771.542 38.892 771.119 38.422 770.273 38.422H769.474C768.691 38.422 768.299 38.7667 768.299 39.456V49.091C768.299 49.7803 768.691 50.125 769.474 50.125ZM789.708 32.547H795.442C800.048 32.547 802.351 34.4897 802.351 38.375V46.365H790.366V49.467C790.366 50.1563 790.758 50.501 791.541 50.501H793.609C794.392 50.501 794.784 50.125 794.784 49.373V48.057H802.351V50.172C802.351 54.0573 800.048 56 795.442 56H789.708C785.102 56 782.799 54.0573 782.799 50.172V38.375C782.799 34.4897 785.102 32.547 789.708 32.547ZM790.366 42.041H794.784V39.08C794.784 38.3907 794.392 38.046 793.609 38.046H791.541C790.758 38.046 790.366 38.3907 790.366 39.08V42.041ZM818.317 32.312H819.022V39.268H816.343C814.369 39.268 813.382 40.3333 813.382 42.464V56H805.392V32.547H813.241V36.166C813.492 34.9753 814.056 34.0353 814.933 33.346C815.811 32.6567 816.939 32.312 818.317 32.312ZM831.24 49.796V47.916C831.24 47.2267 830.849 46.882 830.065 46.882H827.198C822.686 46.882 820.43 44.955 820.43 41.101V38.375C820.43 34.4897 822.733 32.547 827.339 32.547H831.71C836.316 32.547 838.619 34.4897 838.619 38.375V40.349H831.005V38.751C831.005 38.0617 830.614 37.717 829.83 37.717H829.36C828.577 37.717 828.185 38.0617 828.185 38.751V40.819C828.185 41.5083 828.577 41.853 829.36 41.853H832.227C834.64 41.853 836.363 42.3543 837.397 43.357C838.463 44.3283 838.995 45.7383 838.995 47.587V50.172C838.995 54.0573 836.692 56 832.086 56H827.48C822.874 56 820.571 54.0573 820.571 50.172V48.245H828.326V49.796C828.326 50.4853 828.718 50.83 829.501 50.83H830.065C830.849 50.83 831.24 50.4853 831.24 49.796Z" fill="#DEA73C"/>
</svg>
